<svg width="392" height="48" viewBox="0 0 392 48" fill="none" xmlns="http://www.w3.org/2000/svg">
<rect width="392" height="48" rx="8" fill="#37ABEC"/>
<path d="M172.133 30H179.352V28.0625H174.477V18.6875H172.133V30ZM190.773 24.3438C190.773 20.6484 188.484 18.5312 185.492 18.5312C182.477 18.5312 180.195 20.6484 180.195 24.3438C180.195 28.0234 182.477 30.1562 185.492 30.1562C188.484 30.1562 190.773 28.0391 190.773 24.3438ZM182.586 24.3438C182.586 21.9219 183.734 20.6172 185.492 20.6094C187.234 20.6172 188.391 21.9219 188.383 24.3438C188.391 26.7578 187.234 28.0703 185.492 28.0781C183.734 28.0703 182.586 26.7578 182.586 24.3438ZM199.977 22.3281H202.352C202.039 20.1016 200.078 18.5312 197.523 18.5312C194.539 18.5312 192.242 20.6875 192.242 24.3594C192.242 27.9375 194.398 30.1562 197.57 30.1562C200.422 30.1562 202.461 28.3438 202.461 25.375V23.9688H197.742V25.7344H200.195C200.164 27.1562 199.203 28.0703 197.586 28.0781C195.781 28.0703 194.633 26.7188 194.633 24.3281C194.633 21.9531 195.82 20.6172 197.57 20.6094C198.805 20.6172 199.656 21.2656 199.977 22.3281ZM206.523 18.6875H204.18V30H206.523V18.6875ZM217.867 18.6875H215.539V25.875H215.43L210.492 18.6875H208.43V30H210.773V22.8125H210.867L215.836 30H217.867V18.6875Z" fill="white"/>
</svg>
