<svg width="40" height="40" viewBox="0 0 40 40" fill="none" xmlns="http://www.w3.org/2000/svg">
<rect width="40" height="40" rx="8" fill="white"/>
<rect opacity="0.5" width="40" height="40" rx="8" fill="#F5F5F5"/>
<path fill-rule="evenodd" clip-rule="evenodd" d="M17.3548 13.6497C17.6948 13.1397 18.2673 12.8333 18.8802 12.8333H20.1198C20.7327 12.8333 21.3052 13.1397 21.6452 13.6497L22.4343 14.8333H25.5C25.7761 14.8333 26 15.0572 26 15.3333C26 15.6095 25.7761 15.8333 25.5 15.8333H13.5C13.2239 15.8333 13 15.6095 13 15.3333C13 15.0572 13.2239 14.8333 13.5 14.8333H16.5657L17.3548 13.6497ZM17.7676 14.8333H21.2324L20.8131 14.2044C20.6586 13.9726 20.3984 13.8333 20.1198 13.8333H18.8802C18.6016 13.8333 18.3414 13.9726 18.1869 14.2044L17.7676 14.8333ZM14.8333 16.8333C15.1095 16.8333 15.3333 17.0572 15.3333 17.3333V24C15.3333 25.1966 16.3034 26.1667 17.5 26.1667H21.5C22.6966 26.1667 23.6667 25.1966 23.6667 24V17.3333C23.6667 17.0572 23.8905 16.8333 24.1667 16.8333C24.4428 16.8333 24.6667 17.0572 24.6667 17.3333V24C24.6667 25.7489 23.2489 27.1667 21.5 27.1667H17.5C15.7511 27.1667 14.3333 25.7489 14.3333 24V17.3333C14.3333 17.0572 14.5572 16.8333 14.8333 16.8333ZM18.1667 18.8333C18.4428 18.8333 18.6667 19.0572 18.6667 19.3333V23.3333C18.6667 23.6095 18.4428 23.8333 18.1667 23.8333C17.8905 23.8333 17.6667 23.6095 17.6667 23.3333V19.3333C17.6667 19.0572 17.8905 18.8333 18.1667 18.8333ZM20.8333 18.8333C21.1095 18.8333 21.3333 19.0572 21.3333 19.3333V23.3333C21.3333 23.6095 21.1095 23.8333 20.8333 23.8333C20.5572 23.8333 20.3333 23.6095 20.3333 23.3333V19.3333C20.3333 19.0572 20.5572 18.8333 20.8333 18.8333Z" fill="#F37C4B"/>
</svg>
