<svg width="96" height="40" viewBox="0 0 96 40" fill="none" xmlns="http://www.w3.org/2000/svg">
<rect width="96" height="40" rx="8" fill="white"/>
<rect width="96" height="40" rx="8" fill="#F37C4B"/>
<path fill-rule="evenodd" clip-rule="evenodd" d="M23.2709 13.9271C23.5182 13.5561 23.9345 13.3333 24.3803 13.3333H25.6198C26.0656 13.3333 26.4819 13.5561 26.7292 13.9271L27.3334 14.8333H29.8334C30.1096 14.8333 30.3334 15.0572 30.3334 15.3333C30.3334 15.6095 30.1096 15.8333 29.8334 15.8333H20.1667C19.8906 15.8333 19.6667 15.6095 19.6667 15.3333C19.6667 15.0572 19.8906 14.8333 20.1667 14.8333H22.6667L23.2709 13.9271ZM27.0001 26.6667H23.0001C21.5273 26.6667 20.3334 25.4728 20.3334 24V16.6667H29.6667V24C29.6667 25.4728 28.4728 26.6667 27.0001 26.6667ZM23.6667 18.8333C23.9429 18.8333 24.1667 19.0572 24.1667 19.3333V24C24.1667 24.2761 23.9429 24.5 23.6667 24.5C23.3906 24.5 23.1667 24.2761 23.1667 24L23.1667 19.3333C23.1667 19.0572 23.3906 18.8333 23.6667 18.8333ZM26.3334 18.8333C26.6096 18.8333 26.8334 19.0572 26.8334 19.3333V24C26.8334 24.2761 26.6096 24.5 26.3334 24.5C26.0573 24.5 25.8334 24.2761 25.8334 24V19.3333C25.8334 19.0572 26.0573 18.8333 26.3334 18.8333Z" fill="white"/>
<path d="M41.1699 25.5C44.1846 25.5 45.8867 23.627 45.8867 20.5371C45.8867 17.4541 44.1846 15.6016 41.293 15.6016H38.0938V25.5H41.1699ZM39.3242 24.4062V16.6953H41.2109C43.5146 16.6953 44.6836 18.1445 44.6836 20.5371C44.6836 22.9365 43.5146 24.4062 41.0879 24.4062H39.3242ZM50.6582 25.6504C52.1895 25.6572 53.29 24.8916 53.6387 23.7637H52.3809C52.1074 24.2217 51.5469 24.6113 50.6582 24.6113C49.3389 24.6113 48.4229 23.75 48.3613 22.1777H53.748V21.6855C53.7549 18.9375 52.1074 17.9805 50.5488 17.9805C48.5322 17.9805 47.1855 19.5664 47.1855 21.8496C47.1855 24.126 48.5117 25.6572 50.6582 25.6504ZM48.3682 21.1797C48.4502 20.0312 49.2637 19.0195 50.5488 19.0195C51.7725 19.0195 52.5518 19.9424 52.5586 21.1797H48.3682ZM56.4551 15.6016H55.2793V25.5H56.4551V15.6016ZM61.4453 25.6504C62.9766 25.6572 64.0771 24.8916 64.4258 23.7637H63.168C62.8945 24.2217 62.334 24.6113 61.4453 24.6113C60.126 24.6113 59.21 23.75 59.1484 22.1777H64.5352V21.6855C64.542 18.9375 62.8945 17.9805 61.3359 17.9805C59.3193 17.9805 57.9727 19.5664 57.9727 21.8496C57.9727 24.126 59.2988 25.6572 61.4453 25.6504ZM59.1553 21.1797C59.2373 20.0312 60.0508 19.0195 61.3359 19.0195C62.5596 19.0195 63.3389 19.9424 63.3457 21.1797H59.1553ZM69.3066 18.0762H67.748V16.2988H66.5586V18.0762H65.4375V19.0605H66.5586V23.668C66.5654 24.9805 67.6045 25.5957 68.5957 25.5957C68.9443 25.5957 69.2314 25.5684 69.416 25.541V24.4473C69.2451 24.4541 68.9307 24.4746 68.7188 24.4746C68.2197 24.4746 67.7412 24.3174 67.748 23.3672V19.0605H69.3066V18.0762ZM73.8594 25.6504C75.3906 25.6572 76.4912 24.8916 76.8398 23.7637H75.582C75.3086 24.2217 74.748 24.6113 73.8594 24.6113C72.54 24.6113 71.624 23.75 71.5625 22.1777H76.9492V21.6855C76.9561 18.9375 75.3086 17.9805 73.75 17.9805C71.7334 17.9805 70.3867 19.5664 70.3867 21.8496C70.3867 24.126 71.7129 25.6572 73.8594 25.6504ZM71.5693 21.1797C71.6514 20.0312 72.4648 19.0195 73.75 19.0195C74.9736 19.0195 75.7529 19.9424 75.7598 21.1797H71.5693Z" fill="white"/>
</svg>
