<svg width="96" height="40" viewBox="0 0 96 40" fill="none" xmlns="http://www.w3.org/2000/svg">
<rect width="96" height="40" rx="8" fill="white"/>
<rect opacity="0.5" width="96" height="40" rx="8" fill="#F5F5F5"/>
<path fill-rule="evenodd" clip-rule="evenodd" d="M22.8548 13.6497C23.1948 13.1397 23.7673 12.8333 24.3802 12.8333H25.6198C26.2327 12.8333 26.8052 13.1397 27.1452 13.6497L27.9343 14.8333H31C31.2761 14.8333 31.5 15.0572 31.5 15.3333C31.5 15.6095 31.2761 15.8333 31 15.8333H19C18.7239 15.8333 18.5 15.6095 18.5 15.3333C18.5 15.0572 18.7239 14.8333 19 14.8333H22.0657L22.8548 13.6497ZM23.2676 14.8333H26.7324L26.3131 14.2044C26.1586 13.9726 25.8984 13.8333 25.6198 13.8333H24.3802C24.1016 13.8333 23.8414 13.9726 23.6869 14.2044L23.2676 14.8333ZM20.3333 16.8333C20.6095 16.8333 20.8333 17.0572 20.8333 17.3333V24C20.8333 25.1966 21.8034 26.1667 23 26.1667H27C28.1966 26.1667 29.1667 25.1966 29.1667 24V17.3333C29.1667 17.0572 29.3905 16.8333 29.6667 16.8333C29.9428 16.8333 30.1667 17.0572 30.1667 17.3333V24C30.1667 25.7489 28.7489 27.1667 27 27.1667H23C21.2511 27.1667 19.8333 25.7489 19.8333 24V17.3333C19.8333 17.0572 20.0572 16.8333 20.3333 16.8333ZM23.6667 18.8333C23.9428 18.8333 24.1667 19.0572 24.1667 19.3333V23.3333C24.1667 23.6095 23.9428 23.8333 23.6667 23.8333C23.3905 23.8333 23.1667 23.6095 23.1667 23.3333V19.3333C23.1667 19.0572 23.3905 18.8333 23.6667 18.8333ZM26.3333 18.8333C26.6095 18.8333 26.8333 19.0572 26.8333 19.3333V23.3333C26.8333 23.6095 26.6095 23.8333 26.3333 23.8333C26.0572 23.8333 25.8333 23.6095 25.8333 23.3333V19.3333C25.8333 19.0572 26.0572 18.8333 26.3333 18.8333Z" fill="#F37C4B"/>
<path d="M41.1699 25.5C44.1846 25.5 45.8867 23.627 45.8867 20.5371C45.8867 17.4541 44.1846 15.6016 41.293 15.6016H38.0938V25.5H41.1699ZM39.3242 24.4062V16.6953H41.2109C43.5146 16.6953 44.6836 18.1445 44.6836 20.5371C44.6836 22.9365 43.5146 24.4062 41.0879 24.4062H39.3242ZM50.6582 25.6504C52.1895 25.6572 53.29 24.8916 53.6387 23.7637H52.3809C52.1074 24.2217 51.5469 24.6113 50.6582 24.6113C49.3389 24.6113 48.4229 23.75 48.3613 22.1777H53.748V21.6855C53.7549 18.9375 52.1074 17.9805 50.5488 17.9805C48.5322 17.9805 47.1855 19.5664 47.1855 21.8496C47.1855 24.126 48.5117 25.6572 50.6582 25.6504ZM48.3682 21.1797C48.4502 20.0312 49.2637 19.0195 50.5488 19.0195C51.7725 19.0195 52.5518 19.9424 52.5586 21.1797H48.3682ZM56.4551 15.6016H55.2793V25.5H56.4551V15.6016ZM61.4453 25.6504C62.9766 25.6572 64.0771 24.8916 64.4258 23.7637H63.168C62.8945 24.2217 62.334 24.6113 61.4453 24.6113C60.126 24.6113 59.21 23.75 59.1484 22.1777H64.5352V21.6855C64.542 18.9375 62.8945 17.9805 61.3359 17.9805C59.3193 17.9805 57.9727 19.5664 57.9727 21.8496C57.9727 24.126 59.2988 25.6572 61.4453 25.6504ZM59.1553 21.1797C59.2373 20.0312 60.0508 19.0195 61.3359 19.0195C62.5596 19.0195 63.3389 19.9424 63.3457 21.1797H59.1553ZM69.3066 18.0762H67.748V16.2988H66.5586V18.0762H65.4375V19.0605H66.5586V23.668C66.5654 24.9805 67.6045 25.5957 68.5957 25.5957C68.9443 25.5957 69.2314 25.5684 69.416 25.541V24.4473C69.2451 24.4541 68.9307 24.4746 68.7188 24.4746C68.2197 24.4746 67.7412 24.3174 67.748 23.3672V19.0605H69.3066V18.0762ZM73.8594 25.6504C75.3906 25.6572 76.4912 24.8916 76.8398 23.7637H75.582C75.3086 24.2217 74.748 24.6113 73.8594 24.6113C72.54 24.6113 71.624 23.75 71.5625 22.1777H76.9492V21.6855C76.9561 18.9375 75.3086 17.9805 73.75 17.9805C71.7334 17.9805 70.3867 19.5664 70.3867 21.8496C70.3867 24.126 71.7129 25.6572 73.8594 25.6504ZM71.5693 21.1797C71.6514 20.0312 72.4648 19.0195 73.75 19.0195C74.9736 19.0195 75.7529 19.9424 75.7598 21.1797H71.5693Z" fill="black"/>
</svg>
