<svg width="44" height="44" viewBox="0 0 44 44" fill="none" xmlns="http://www.w3.org/2000/svg">
<rect opacity="0.2" x="1" y="1" width="42" height="42" rx="9" fill="white" stroke="#F37C4B" stroke-width="2"/>
<rect opacity="0.5" x="2.5" y="2.5" width="39" height="39" rx="7.5" fill="#F5F5F5" stroke="#F37C4B"/>
<path fill-rule="evenodd" clip-rule="evenodd" d="M19.3548 15.6497C19.6948 15.1397 20.2673 14.8333 20.8802 14.8333H22.1198C22.7327 14.8333 23.3052 15.1397 23.6452 15.6497L24.4343 16.8333H27.5C27.7761 16.8333 28 17.0572 28 17.3333C28 17.6095 27.7761 17.8333 27.5 17.8333H15.5C15.2239 17.8333 15 17.6095 15 17.3333C15 17.0572 15.2239 16.8333 15.5 16.8333H18.5657L19.3548 15.6497ZM19.7676 16.8333H23.2324L22.8131 16.2044C22.6586 15.9726 22.3984 15.8333 22.1198 15.8333H20.8802C20.6016 15.8333 20.3414 15.9726 20.1869 16.2044L19.7676 16.8333ZM16.8333 18.8333C17.1095 18.8333 17.3333 19.0572 17.3333 19.3333V26C17.3333 27.1966 18.3034 28.1667 19.5 28.1667H23.5C24.6966 28.1667 25.6667 27.1966 25.6667 26V19.3333C25.6667 19.0572 25.8905 18.8333 26.1667 18.8333C26.4428 18.8333 26.6667 19.0572 26.6667 19.3333V26C26.6667 27.7489 25.2489 29.1667 23.5 29.1667H19.5C17.7511 29.1667 16.3333 27.7489 16.3333 26V19.3333C16.3333 19.0572 16.5572 18.8333 16.8333 18.8333ZM20.1667 20.8333C20.4428 20.8333 20.6667 21.0572 20.6667 21.3333V25.3333C20.6667 25.6095 20.4428 25.8333 20.1667 25.8333C19.8905 25.8333 19.6667 25.6095 19.6667 25.3333V21.3333C19.6667 21.0572 19.8905 20.8333 20.1667 20.8333ZM22.8333 20.8333C23.1095 20.8333 23.3333 21.0572 23.3333 21.3333V25.3333C23.3333 25.6095 23.1095 25.8333 22.8333 25.8333C22.5572 25.8333 22.3333 25.6095 22.3333 25.3333V21.3333C22.3333 21.0572 22.5572 20.8333 22.8333 20.8333Z" fill="#F37C4B"/>
</svg>
