<svg width="100" height="44" viewBox="0 0 100 44" fill="none" xmlns="http://www.w3.org/2000/svg">
<rect opacity="0.2" x="1" y="1" width="98" height="42" rx="9" fill="white" stroke="#F37C4B" stroke-width="2"/>
<rect opacity="0.5" x="2.5" y="2.5" width="95" height="39" rx="7.5" fill="#F5F5F5" stroke="#F37C4B"/>
<path fill-rule="evenodd" clip-rule="evenodd" d="M24.8548 15.6497C25.1948 15.1397 25.7673 14.8333 26.3802 14.8333H27.6198C28.2327 14.8333 28.8052 15.1397 29.1452 15.6497L29.9343 16.8333H33C33.2761 16.8333 33.5 17.0572 33.5 17.3333C33.5 17.6095 33.2761 17.8333 33 17.8333H21C20.7239 17.8333 20.5 17.6095 20.5 17.3333C20.5 17.0572 20.7239 16.8333 21 16.8333H24.0657L24.8548 15.6497ZM25.2676 16.8333H28.7324L28.3131 16.2044C28.1586 15.9726 27.8984 15.8333 27.6198 15.8333H26.3802C26.1016 15.8333 25.8414 15.9726 25.6869 16.2044L25.2676 16.8333ZM22.3333 18.8333C22.6095 18.8333 22.8333 19.0572 22.8333 19.3333V26C22.8333 27.1966 23.8034 28.1667 25 28.1667H29C30.1966 28.1667 31.1667 27.1966 31.1667 26V19.3333C31.1667 19.0572 31.3905 18.8333 31.6667 18.8333C31.9428 18.8333 32.1667 19.0572 32.1667 19.3333V26C32.1667 27.7489 30.7489 29.1667 29 29.1667H25C23.2511 29.1667 21.8333 27.7489 21.8333 26V19.3333C21.8333 19.0572 22.0572 18.8333 22.3333 18.8333ZM25.6667 20.8333C25.9428 20.8333 26.1667 21.0572 26.1667 21.3333V25.3333C26.1667 25.6095 25.9428 25.8333 25.6667 25.8333C25.3905 25.8333 25.1667 25.6095 25.1667 25.3333V21.3333C25.1667 21.0572 25.3905 20.8333 25.6667 20.8333ZM28.3333 20.8333C28.6095 20.8333 28.8333 21.0572 28.8333 21.3333V25.3333C28.8333 25.6095 28.6095 25.8333 28.3333 25.8333C28.0572 25.8333 27.8333 25.6095 27.8333 25.3333V21.3333C27.8333 21.0572 28.0572 20.8333 28.3333 20.8333Z" fill="#F37C4B"/>
<path d="M43.1699 27.5C46.1846 27.5 47.8867 25.627 47.8867 22.5371C47.8867 19.4541 46.1846 17.6016 43.293 17.6016H40.0938V27.5H43.1699ZM41.3242 26.4062V18.6953H43.2109C45.5146 18.6953 46.6836 20.1445 46.6836 22.5371C46.6836 24.9365 45.5146 26.4062 43.0879 26.4062H41.3242ZM52.6582 27.6504C54.1895 27.6572 55.29 26.8916 55.6387 25.7637H54.3809C54.1074 26.2217 53.5469 26.6113 52.6582 26.6113C51.3389 26.6113 50.4229 25.75 50.3613 24.1777H55.748V23.6855C55.7549 20.9375 54.1074 19.9805 52.5488 19.9805C50.5322 19.9805 49.1855 21.5664 49.1855 23.8496C49.1855 26.126 50.5117 27.6572 52.6582 27.6504ZM50.3682 23.1797C50.4502 22.0312 51.2637 21.0195 52.5488 21.0195C53.7725 21.0195 54.5518 21.9424 54.5586 23.1797H50.3682ZM58.4551 17.6016H57.2793V27.5H58.4551V17.6016ZM63.4453 27.6504C64.9766 27.6572 66.0771 26.8916 66.4258 25.7637H65.168C64.8945 26.2217 64.334 26.6113 63.4453 26.6113C62.126 26.6113 61.21 25.75 61.1484 24.1777H66.5352V23.6855C66.542 20.9375 64.8945 19.9805 63.3359 19.9805C61.3193 19.9805 59.9727 21.5664 59.9727 23.8496C59.9727 26.126 61.2988 27.6572 63.4453 27.6504ZM61.1553 23.1797C61.2373 22.0312 62.0508 21.0195 63.3359 21.0195C64.5596 21.0195 65.3389 21.9424 65.3457 23.1797H61.1553ZM71.3066 20.0762H69.748V18.2988H68.5586V20.0762H67.4375V21.0605H68.5586V25.668C68.5654 26.9805 69.6045 27.5957 70.5957 27.5957C70.9443 27.5957 71.2314 27.5684 71.416 27.541V26.4473C71.2451 26.4541 70.9307 26.4746 70.7188 26.4746C70.2197 26.4746 69.7412 26.3174 69.748 25.3672V21.0605H71.3066V20.0762ZM75.8594 27.6504C77.3906 27.6572 78.4912 26.8916 78.8398 25.7637H77.582C77.3086 26.2217 76.748 26.6113 75.8594 26.6113C74.54 26.6113 73.624 25.75 73.5625 24.1777H78.9492V23.6855C78.9561 20.9375 77.3086 19.9805 75.75 19.9805C73.7334 19.9805 72.3867 21.5664 72.3867 23.8496C72.3867 26.126 73.7129 27.6572 75.8594 27.6504ZM73.5693 23.1797C73.6514 22.0312 74.4648 21.0195 75.75 21.0195C76.9736 21.0195 77.7529 21.9424 77.7598 23.1797H73.5693Z" fill="black"/>
</svg>
