<svg width="40" height="40" viewBox="0 0 40 40" fill="none" xmlns="http://www.w3.org/2000/svg">
<rect width="40" height="40" rx="8" fill="white"/>
<rect width="40" height="40" rx="8" fill="#F37C4B"/>
<path fill-rule="evenodd" clip-rule="evenodd" d="M17.7709 13.9271C18.0182 13.5561 18.4345 13.3333 18.8803 13.3333H20.1198C20.5656 13.3333 20.9819 13.5561 21.2292 13.9271L21.8334 14.8333H24.3334C24.6096 14.8333 24.8334 15.0572 24.8334 15.3333C24.8334 15.6095 24.6096 15.8333 24.3334 15.8333H14.6667C14.3906 15.8333 14.1667 15.6095 14.1667 15.3333C14.1667 15.0572 14.3906 14.8333 14.6667 14.8333H17.1667L17.7709 13.9271ZM21.5001 26.6667H17.5001C16.0273 26.6667 14.8334 25.4728 14.8334 24V16.6667H24.1667V24C24.1667 25.4728 22.9728 26.6667 21.5001 26.6667ZM18.1667 18.8333C18.4429 18.8333 18.6667 19.0572 18.6667 19.3333V24C18.6667 24.2761 18.4429 24.5 18.1667 24.5C17.8906 24.5 17.6667 24.2761 17.6667 24L17.6667 19.3333C17.6667 19.0572 17.8906 18.8333 18.1667 18.8333ZM20.8334 18.8333C21.1096 18.8333 21.3334 19.0572 21.3334 19.3333V24C21.3334 24.2761 21.1096 24.5 20.8334 24.5C20.5573 24.5 20.3334 24.2761 20.3334 24V19.3333C20.3334 19.0572 20.5573 18.8333 20.8334 18.8333Z" fill="white"/>
</svg>
