<svg width="40" height="40" viewBox="0 0 40 40" fill="none" xmlns="http://www.w3.org/2000/svg">
<circle cx="20" cy="20" r="20" fill="#37ABEC"/>
<path fill-rule="evenodd" clip-rule="evenodd" d="M9.25006 14C9.25006 11.3766 11.3767 9.25 14.0001 9.25H26.0001C28.6234 9.25 30.7501 11.3766 30.7501 14V21.9915C30.7501 21.9976 30.7501 22.0037 30.7501 22.0098V26C30.7501 28.6234 28.6234 30.75 26.0001 30.75H14.0001C11.3767 30.75 9.25006 28.6234 9.25006 26V22.0085C9.24998 22.0024 9.24998 21.9963 9.25006 21.9902V14ZM10.7501 23.4642V26C10.7501 27.7949 12.2051 29.25 14.0001 29.25H26.0001C27.795 29.25 29.2501 27.7949 29.2501 26V22.3842L26.6228 20.4926C25.382 19.5992 23.6862 19.6915 22.5497 20.7143L18.4539 24.4006C16.7928 25.8955 14.3144 26.0305 12.5008 24.7247L10.7501 23.4642ZM29.2501 20.5358L27.4993 19.2753C25.6857 17.9695 23.2073 18.1045 21.5462 19.5994L17.4504 23.2857C16.3139 24.3085 14.6181 24.4008 13.3773 23.5074L10.7501 21.6158V14C10.7501 12.2051 12.2051 10.75 14.0001 10.75H26.0001C27.795 10.75 29.2501 12.2051 29.2501 14V20.5358ZM16.5001 14.75C15.5336 14.75 14.7501 15.5335 14.7501 16.5C14.7501 17.4665 15.5336 18.25 16.5001 18.25C17.4666 18.25 18.2501 17.4665 18.2501 16.5C18.2501 15.5335 17.4666 14.75 16.5001 14.75ZM13.2501 16.5C13.2501 14.7051 14.7051 13.25 16.5001 13.25C18.295 13.25 19.7501 14.7051 19.7501 16.5C19.7501 18.2949 18.295 19.75 16.5001 19.75C14.7051 19.75 13.2501 18.2949 13.2501 16.5Z" fill="white"/>
</svg>
