<svg width="124" height="44" viewBox="0 0 124 44" fill="none" xmlns="http://www.w3.org/2000/svg">
<rect x="2" y="2" width="120" height="40" rx="8" fill="white"/>
<rect x="1" y="1" width="122" height="42" rx="9" stroke="#F37C4B" stroke-opacity="0.2" stroke-width="2"/>
<rect opacity="0.5" x="2.5" y="2.5" width="119" height="39" rx="7.5" fill="white" stroke="#F37C4B"/>
<path fill-rule="evenodd" clip-rule="evenodd" d="M47.1234 15.7303C49.1444 13.6577 52.4279 13.6577 54.4489 15.7303C56.4076 17.739 56.4672 20.9695 54.5854 23.0523L49.8135 28.3341C48.2976 30.012 45.7023 30.012 44.1864 28.3341L39.4145 23.0523C37.5327 20.9695 37.5923 17.739 39.551 15.7303C41.572 13.6577 44.8555 13.6577 46.8766 15.7303L46.4291 16.1667L46.8766 15.7303L47 15.8569L47.1234 15.7303ZM53.554 16.603C52.0235 15.0335 49.5488 15.0335 48.0183 16.603L47.4474 17.1885C47.3298 17.3091 47.1684 17.3771 47 17.3771C46.8315 17.3771 46.6701 17.3091 46.5525 17.1885L45.9816 16.603C44.4511 15.0335 41.9764 15.0335 40.4459 16.603C38.9485 18.1387 38.9018 20.6202 40.342 22.2143L45.1139 27.4961C46.1335 28.6247 47.8664 28.6247 48.886 27.4961L53.6579 22.2143C55.0981 20.6202 55.0514 18.1387 53.554 16.603ZM50.5416 17.4167C50.5416 17.0715 50.8214 16.7917 51.1666 16.7917C52.4323 16.7917 53.4583 17.8177 53.4583 19.0833C53.4583 19.4285 53.1784 19.7083 52.8333 19.7083C52.4881 19.7083 52.2083 19.4285 52.2083 19.0833C52.2083 18.508 51.7419 18.0417 51.1666 18.0417C50.8214 18.0417 50.5416 17.7618 50.5416 17.4167Z" fill="#28303F"/>
<path d="M62.0938 27.5H67.918V26.4062H63.3242V17.6016H62.0938V27.5ZM69.4082 27.5H70.584V20.0762H69.4082V27.5ZM69.1758 18.0664C69.1689 18.4971 69.5449 18.8457 69.9961 18.8457C70.4473 18.8457 70.8232 18.4971 70.8301 18.0664C70.8232 17.6289 70.4473 17.2803 69.9961 17.2871C69.5449 17.2803 69.1689 17.6289 69.1758 18.0664ZM72.457 27.5H73.6328V24.7314L74.4189 24L77.1738 27.5H78.6641L75.3008 23.2549L78.4316 20.0762H76.9824L73.7695 23.3574H73.6328V17.6016H72.457V27.5ZM82.4922 27.6504C84.0234 27.6572 85.124 26.8916 85.4727 25.7637H84.2148C83.9414 26.2217 83.3809 26.6113 82.4922 26.6113C81.1729 26.6113 80.2568 25.75 80.1953 24.1777H85.582V23.6855C85.5889 20.9375 83.9414 19.9805 82.3828 19.9805C80.3662 19.9805 79.0195 21.5664 79.0195 23.8496C79.0195 26.126 80.3457 27.6572 82.4922 27.6504ZM80.2021 23.1797C80.2842 22.0312 81.0977 21.0195 82.3828 21.0195C83.6064 21.0195 84.3857 21.9424 84.3926 23.1797H80.2021Z" fill="black"/>
</svg>
