<svg width="96" height="40" viewBox="0 0 96 40" fill="none" xmlns="http://www.w3.org/2000/svg">
<rect width="96" height="40" rx="8" fill="white"/>
<rect opacity="0.5" width="96" height="40" rx="8" fill="#F5F5F5"/>
<path fill-rule="evenodd" clip-rule="evenodd" d="M20.9753 21.5696C21.9028 21.1058 23.1492 20.8334 24.4987 20.8334C25.8482 20.8334 27.0946 21.1058 28.0222 21.5696C28.9198 22.0184 29.6654 22.7309 29.6654 23.6667C29.6654 24.6024 28.9198 25.315 28.0222 25.7638C27.0946 26.2276 25.8482 26.5 24.4987 26.5C23.1492 26.5 21.9028 26.2276 20.9753 25.7638C20.0776 25.315 19.332 24.6024 19.332 23.6667C19.332 22.7309 20.0776 22.0184 20.9753 21.5696Z" fill="#37ABEC"/>
<path fill-rule="evenodd" clip-rule="evenodd" d="M21.332 16.6667C21.332 14.9178 22.7498 13.5 24.4987 13.5C26.2476 13.5 27.6654 14.9178 27.6654 16.6667C27.6654 18.4156 26.2476 19.8333 24.4987 19.8333C22.7498 19.8333 21.332 18.4156 21.332 16.6667Z" fill="#37ABEC"/>
<path d="M37.4531 25.5H44.6719V23.5625H39.7969V14.1875H37.4531V25.5ZM49.9531 25.6719C52.5234 25.6641 54.1172 23.9062 54.125 21.2812C54.1172 18.6641 52.5234 16.9062 49.9531 16.9062C47.3906 16.9062 45.7891 18.6641 45.7969 21.2812C45.7891 23.9062 47.3906 25.6641 49.9531 25.6719ZM48.1406 21.2812C48.1406 19.7891 48.7578 18.6719 49.9688 18.6719C51.1484 18.6719 51.7734 19.7891 51.7656 21.2812C51.7734 22.7656 51.1484 23.8672 49.9688 23.875C48.7578 23.8672 48.1406 22.7656 48.1406 21.2812ZM59.3906 28.8594C61.8047 28.8594 63.5078 27.7578 63.5156 25.5938V17.0156H61.2188V18.4375H61.125C60.8125 17.75 60.125 16.9062 58.7031 16.9062C56.8281 16.9062 55.25 18.3359 55.25 21.2031C55.25 24.0312 56.7891 25.3828 58.7031 25.375C60.0703 25.3828 60.8203 24.6875 61.125 24H61.2344V25.5469C61.2266 26.7266 60.5078 27.1875 59.4375 27.1875C58.5156 27.1875 57.875 26.8828 57.75 26.2031H55.4688C55.6016 27.8047 57.0469 28.8594 59.3906 28.8594ZM57.625 21.2344C57.6172 19.7734 58.2422 18.75 59.4219 18.75C60.5859 18.75 61.2344 19.7266 61.2344 21.2344C61.2344 22.7422 60.5781 23.6328 59.4219 23.6406C58.25 23.6328 57.6172 22.7031 57.625 21.2344ZM65.3125 25.5H67.625V17.0156H65.3125V25.5ZM65.2031 14.7344C65.2031 15.375 65.7734 15.9062 66.4688 15.9062C67.1562 15.9062 67.7266 15.375 67.7188 14.7344C67.7266 14.0781 67.1562 13.5547 66.4688 13.5469C65.7734 13.5547 65.2031 14.0781 65.2031 14.7344ZM71.7344 20.5938C71.7344 19.4766 72.3984 18.8281 73.3594 18.8281C74.3203 18.8281 74.8828 19.4531 74.8906 20.5V25.5H77.1875V20.0938C77.1953 18.1172 76.0391 16.9062 74.2656 16.9062C73.0078 16.9062 72.1016 17.5234 71.7188 18.5H71.625V17.0156H69.4219V25.5H71.7344V20.5938Z" fill="black"/>
</svg>
