<svg width="96" height="40" viewBox="0 0 96 40" fill="none" xmlns="http://www.w3.org/2000/svg">
<rect width="96" height="40" rx="8" fill="white"/>
<rect opacity="0.5" width="96" height="40" rx="8" fill="white"/>
<path fill-rule="evenodd" clip-rule="evenodd" d="M15.3954 12.2627C16.802 11.325 18.6497 12.1847 18.9237 13.7636H21.6666C22.9322 13.7636 23.9583 14.7897 23.9583 16.0553C23.9583 16.4005 23.6784 16.6803 23.3333 16.6803C22.9881 16.6803 22.7083 16.4005 22.7083 16.0553C22.7083 15.48 22.2419 15.0136 21.6666 15.0136H18.9583V25.4303H21.6666C22.2419 25.4303 22.7083 24.9639 22.7083 24.3886C22.7083 24.0435 22.9881 23.7636 23.3333 23.7636C23.6784 23.7636 23.9583 24.0435 23.9583 24.3886C23.9583 25.6543 22.9322 26.6803 21.6666 26.6803H18.9237C18.6497 28.2593 16.802 29.119 15.3954 28.1812L13.7287 27.0701C13.0912 26.6451 12.7083 25.9296 12.7083 25.1633V15.2806C12.7083 14.5144 13.0912 13.7989 13.7287 13.3738L15.3954 12.2627ZM24.558 22.1086C24.3139 21.8645 24.3139 21.4688 24.558 21.2247L25.1577 20.625L20.8333 20.625C20.4881 20.625 20.2083 20.3452 20.2083 20C20.2083 19.6548 20.4881 19.375 20.8333 19.375L25.1577 19.375L24.558 18.7753C24.3139 18.5312 24.3139 18.1355 24.558 17.8914C24.8021 17.6473 25.1978 17.6473 25.4419 17.8914L26.5193 18.9688C27.0888 19.5383 27.0888 20.4617 26.5193 21.0312L25.4419 22.1086C25.1978 22.3527 24.8021 22.3527 24.558 22.1086Z" fill="#28303F"/>
<path d="M35.0469 25.5H42.0781V23.7812H37.0781V14.1875H35.0469V25.5ZM47.3125 25.6719C49.7969 25.6719 51.3828 23.9141 51.375 21.2969C51.3828 18.6562 49.7969 16.9062 47.3125 16.9062C44.8359 16.9062 43.25 18.6562 43.25 21.2969C43.25 23.9141 44.8359 25.6719 47.3125 25.6719ZM45.2656 21.2812C45.2656 19.7266 45.9453 18.4766 47.3281 18.4844C48.6875 18.4766 49.3672 19.7266 49.3594 21.2812C49.3672 22.8359 48.6875 24.0781 47.3281 24.0781C45.9453 24.0781 45.2656 22.8359 45.2656 21.2812ZM56.625 28.8594C58.9141 28.8594 60.5938 27.8125 60.5938 25.6406V17.0156H58.625V18.4062H58.5312C58.2188 17.8047 57.5859 16.9062 56.0938 16.9062C54.125 16.9062 52.5781 18.3984 52.5781 21.1875C52.5781 23.9531 54.1172 25.375 56.0781 25.375C57.5391 25.375 58.2188 24.5938 58.5312 23.9688H58.625V25.5938C58.625 26.8359 57.8516 27.3516 56.6562 27.3594C55.6328 27.3516 54.9375 27.0078 54.7969 26.2656H52.8125C52.9453 27.8594 54.375 28.8594 56.625 28.8594ZM54.6094 21.2188C54.6094 19.6719 55.2969 18.5391 56.625 18.5312C57.9219 18.5391 58.6406 19.6016 58.6406 21.2188C58.6406 22.8438 57.9141 23.8125 56.625 23.8125C55.3125 23.8125 54.6094 22.7812 54.6094 21.2188ZM66.2031 25.6719C68.6875 25.6719 70.2734 23.9141 70.2656 21.2969C70.2734 18.6562 68.6875 16.9062 66.2031 16.9062C63.7266 16.9062 62.1406 18.6562 62.1406 21.2969C62.1406 23.9141 63.7266 25.6719 66.2031 25.6719ZM64.1562 21.2812C64.1562 19.7266 64.8359 18.4766 66.2188 18.4844C67.5781 18.4766 68.2578 19.7266 68.25 21.2812C68.2578 22.8359 67.5781 24.0781 66.2188 24.0781C64.8359 24.0781 64.1562 22.8359 64.1562 21.2812ZM77.2344 21.9375C77.2344 23.2344 76.2969 23.875 75.4219 23.875C74.4531 23.875 73.8125 23.1875 73.8125 22.1094V17.0156H71.8125V22.4219C71.8203 24.4531 72.9766 25.6094 74.6562 25.6094C75.9219 25.6094 76.8125 24.9453 77.2031 24H77.2969V25.5H79.2188V17.0156H77.2344V21.9375ZM85.3594 17.0156H83.6875V14.9844H81.7031V17.0156H80.4844V18.5469H81.7031V23.2812C81.6875 24.875 82.8438 25.6172 84.3438 25.6094C84.8516 25.6172 85.2344 25.5703 85.4688 25.5312V23.9062C85.2188 23.9219 84.8281 23.9453 84.5938 23.9375C84.0938 23.9297 83.6875 23.7656 83.6875 22.9531V18.5469H85.3594V17.0156Z" fill="black"/>
</svg>
