<svg width="44" height="44" viewBox="0 0 44 44" fill="none" xmlns="http://www.w3.org/2000/svg">
<rect x="2" y="2" width="40" height="40" rx="8" fill="white"/>
<rect x="2" y="2" width="40" height="40" rx="8" fill="white"/>
<rect x="1" y="1" width="42" height="42" rx="9" stroke="#279BDC" stroke-opacity="0.2" stroke-width="2"/>
<rect opacity="0.5" x="2.5" y="2.5" width="39" height="39" rx="7.5" fill="#F5F5F5" stroke="#37ABEC"/>
<g clip-path="url(#clip0_9_720)">
<path fill-rule="evenodd" clip-rule="evenodd" d="M25.0575 15.3747C25.7794 14.6529 26.9498 14.6529 27.6716 15.3747L28.6252 16.3283C29.3471 17.0502 29.3471 18.2206 28.6252 18.9424L23.2218 24.3458C22.939 24.6286 22.5721 24.8121 22.1762 24.8686L20.1737 25.1547C19.3988 25.2654 18.7345 24.6011 18.8452 23.8262L19.1313 21.8238C19.1879 21.4278 19.3713 21.0609 19.6541 20.7781L25.0575 15.3747ZM26.9645 16.0819C26.6332 15.7505 26.0959 15.7505 25.7646 16.0819L24.9826 16.8638C24.9965 16.9337 25.0179 17.0203 25.051 17.1197C25.1486 17.4124 25.3489 17.8197 25.7646 18.2353C26.1803 18.651 26.5875 18.8513 26.8802 18.9489C26.9796 18.982 27.0662 19.0034 27.1361 19.0173L27.9181 18.2353C28.2494 17.904 28.2494 17.3667 27.9181 17.0354L26.9645 16.0819ZM26.3396 19.8138C25.957 19.6557 25.5043 19.3893 25.0575 18.9425C24.6106 18.4956 24.3442 18.043 24.1861 17.6603L20.3612 21.4852C20.2314 21.615 20.1472 21.7834 20.1212 21.9652L19.8352 23.9676C19.8188 24.0826 19.9173 24.1812 20.0323 24.1647L22.0347 23.8787C22.2165 23.8527 22.3849 23.7685 22.5147 23.6387L26.3396 19.8138ZM24.9575 16.6807L24.9575 16.68L24.9575 16.6786L24.9575 16.6767C24.9574 16.6761 24.9574 16.6759 24.9574 16.6761L24.9575 16.6767C24.9575 16.6767 24.9575 16.6767 24.9575 16.6767M24.9575 16.6807C24.9575 16.6808 24.9575 16.681 24.9575 16.6811C24.9575 16.6812 24.9575 16.6813 24.9575 16.6814C24.9575 16.6814 24.9575 16.6814 24.9575 16.6814L24.9575 16.6811V16.6809L24.9575 16.6807ZM17.9999 15.8333C16.8033 15.8333 15.8333 16.8034 15.8333 18V26C15.8333 27.1966 16.8033 28.1667 17.9999 28.1667H25.9999C27.1965 28.1667 28.1666 27.1966 28.1666 26V22C28.1666 21.7239 28.3904 21.5 28.6666 21.5C28.9427 21.5 29.1666 21.7239 29.1666 22V26C29.1666 27.7489 27.7488 29.1667 25.9999 29.1667H17.9999C16.251 29.1667 14.8333 27.7489 14.8333 26V18C14.8333 16.2511 16.251 14.8333 17.9999 14.8333H21.9999C22.2761 14.8333 22.4999 15.0572 22.4999 15.3333C22.4999 15.6095 22.2761 15.8333 21.9999 15.8333H17.9999Z" fill="#28303F"/>
</g>
<defs>
<clipPath id="clip0_9_720">
<rect width="16" height="16" fill="white" transform="translate(14 14)"/>
</clipPath>
</defs>
</svg>
