<svg width="40" height="40" viewBox="0 0 40 40" fill="none" xmlns="http://www.w3.org/2000/svg">
<rect x="0.5" y="0.5" width="39" height="39" rx="7.5" fill="#37ABEC" stroke="#37ABEC"/>
<g clip-path="url(#clip0_9_593)">
<path fill-rule="evenodd" clip-rule="evenodd" d="M13.8333 16C13.8333 14.8034 14.8033 13.8333 15.9999 13.8333H19.9999C20.2761 13.8333 20.4999 13.6095 20.4999 13.3333C20.4999 13.0572 20.2761 12.8333 19.9999 12.8333H15.9999C14.251 12.8333 12.8333 14.2511 12.8333 16V24C12.8333 25.7489 14.251 27.1667 15.9999 27.1667H23.9999C25.7488 27.1667 27.1666 25.7489 27.1666 24V20C27.1666 19.7239 26.9427 19.5 26.6666 19.5C26.3904 19.5 26.1666 19.7239 26.1666 20V24C26.1666 25.1966 25.1965 26.1667 23.9999 26.1667H15.9999C14.8033 26.1667 13.8333 25.1966 13.8333 24V16ZM22.9459 13.7847C23.5478 13.1829 24.5236 13.1829 25.1254 13.7847L26.2152 14.8745C26.817 15.4763 26.817 16.4521 26.2152 17.054L25.249 18.0202C25.1731 17.9826 25.0933 17.942 25.0106 17.8984C24.4536 17.6052 23.7927 17.1937 23.2995 16.7005C22.8062 16.2072 22.3947 15.5463 22.1015 14.9893C22.0579 14.9066 22.0173 14.8268 21.9797 14.7509L22.9459 13.7847ZM22.5924 17.4076C23.1761 17.9912 23.9184 18.4506 24.5062 18.7629L20.7066 22.5626C20.4708 22.7983 20.1649 22.9513 19.8348 22.9985L17.5463 23.3254C17.0378 23.398 16.6019 22.9621 16.6745 22.4536L17.0015 20.1651C17.0486 19.835 17.2016 19.5291 17.4374 19.2933L21.237 15.4937C21.5493 16.0816 22.0087 16.8239 22.5924 17.4076Z" fill="white"/>
</g>
<defs>
<clipPath id="clip0_9_593">
<rect width="16" height="16" fill="white" transform="translate(12 12)"/>
</clipPath>
</defs>
</svg>
