<svg width="40" height="40" viewBox="0 0 40 40" fill="none" xmlns="http://www.w3.org/2000/svg">
<rect width="40" height="40" rx="8" fill="white"/>
<rect opacity="0.5" width="40" height="40" rx="8" fill="#F5F5F5"/>
<g clip-path="url(#clip0_9_592)">
<path fill-rule="evenodd" clip-rule="evenodd" d="M23.0575 13.3747C23.7794 12.6529 24.9498 12.6529 25.6716 13.3747L26.6252 14.3283C27.3471 15.0502 27.3471 16.2206 26.6252 16.9424L21.2218 22.3458C20.939 22.6286 20.5721 22.8121 20.1762 22.8686L18.1737 23.1547C17.3988 23.2654 16.7345 22.6011 16.8452 21.8262L17.1313 19.8238C17.1879 19.4278 17.3713 19.0609 17.6541 18.7781L23.0575 13.3747ZM24.9645 14.0819C24.6332 13.7505 24.0959 13.7505 23.7646 14.0819L22.9826 14.8638C22.9965 14.9337 23.0179 15.0203 23.051 15.1197C23.1486 15.4124 23.3489 15.8197 23.7646 16.2353C24.1803 16.651 24.5875 16.8513 24.8802 16.9489C24.9796 16.982 25.0662 17.0034 25.1361 17.0173L25.9181 16.2353C26.2494 15.904 26.2494 15.3667 25.9181 15.0354L24.9645 14.0819ZM24.3396 17.8138C23.957 17.6557 23.5043 17.3893 23.0575 16.9424C22.6106 16.4956 22.3442 16.043 22.1861 15.6603L18.3612 19.4852C18.2314 19.615 18.1472 19.7834 18.1212 19.9652L17.8352 21.9676C17.8188 22.0826 17.9173 22.1812 18.0323 22.1647L20.0347 21.8787C20.2165 21.8527 20.3849 21.7685 20.5147 21.6387L24.3396 17.8138ZM22.9575 14.6807L22.9575 14.68L22.9575 14.6786L22.9575 14.6767C22.9574 14.6761 22.9574 14.6759 22.9574 14.6761L22.9575 14.6767C22.9575 14.6767 22.9575 14.6767 22.9575 14.6767M22.9575 14.6807C22.9575 14.6808 22.9575 14.681 22.9575 14.6811C22.9575 14.6812 22.9575 14.6813 22.9575 14.6814C22.9575 14.6814 22.9575 14.6814 22.9575 14.6814L22.9575 14.6811V14.6809L22.9575 14.6807ZM15.9999 13.8333C14.8033 13.8333 13.8333 14.8034 13.8333 16V24C13.8333 25.1966 14.8033 26.1667 15.9999 26.1667H23.9999C25.1965 26.1667 26.1666 25.1966 26.1666 24V20C26.1666 19.7239 26.3904 19.5 26.6666 19.5C26.9427 19.5 27.1666 19.7239 27.1666 20V24C27.1666 25.7489 25.7488 27.1667 23.9999 27.1667H15.9999C14.251 27.1667 12.8333 25.7489 12.8333 24V16C12.8333 14.2511 14.251 12.8333 15.9999 12.8333H19.9999C20.2761 12.8333 20.4999 13.0572 20.4999 13.3333C20.4999 13.6095 20.2761 13.8333 19.9999 13.8333H15.9999Z" fill="#28303F"/>
</g>
<defs>
<clipPath id="clip0_9_592">
<rect width="16" height="16" fill="white" transform="translate(12 12)"/>
</clipPath>
</defs>
</svg>
