<svg width="128" height="40" viewBox="0 0 128 40" fill="none" xmlns="http://www.w3.org/2000/svg">
<rect width="128" height="40" rx="8" fill="white"/>
<rect opacity="0.5" width="128" height="40" rx="8" fill="#F5F5F5"/>
<path fill-rule="evenodd" clip-rule="evenodd" d="M25.5904 22.4639C24.7991 22.8596 24.5 23.3138 24.5 23.6666C24.5 24.0196 24.7991 24.4737 25.5904 24.8694C26.3519 25.2501 27.4388 25.5 28.6667 25.5C29.8945 25.5 30.9814 25.2501 31.7429 24.8694C32.5342 24.4737 32.8334 24.0196 32.8334 23.6666C32.8334 23.3138 32.5342 22.8596 31.7429 22.4639C30.9814 22.0832 29.8945 21.8334 28.6667 21.8334C27.4388 21.8334 26.3519 22.0832 25.5904 22.4639ZM25.1432 21.5695C26.0708 21.1058 27.3172 20.8334 28.6667 20.8334C30.0162 20.8334 31.2626 21.1058 32.1901 21.5695C33.0878 22.0183 33.8334 22.7309 33.8334 23.6666C33.8334 24.6024 33.0878 25.315 32.1901 25.7638C31.2626 26.2276 30.0162 26.5 28.6667 26.5C27.3172 26.5 26.0708 26.2276 25.1432 25.7638C24.2456 25.315 23.5 24.6024 23.5 23.6666C23.5 22.7309 24.2456 22.0183 25.1432 21.5695Z" fill="#1E2124"/>
<path fill-rule="evenodd" clip-rule="evenodd" d="M28.6667 14.5C27.47 14.5 26.5 15.47 26.5 16.6667C26.5 17.8633 27.47 18.8333 28.6667 18.8333C29.8633 18.8333 30.8334 17.8633 30.8334 16.6667C30.8334 15.47 29.8633 14.5 28.6667 14.5ZM25.5 16.6667C25.5 14.9178 26.9178 13.5 28.6667 13.5C30.4156 13.5 31.8334 14.9178 31.8334 16.6667C31.8334 18.4156 30.4156 19.8333 28.6667 19.8333C26.9178 19.8333 25.5 18.4156 25.5 16.6667Z" fill="#1E2124"/>
<path fill-rule="evenodd" clip-rule="evenodd" d="M32.8334 19.3333C32.8334 19.0572 33.0572 18.8333 33.3334 18.8333H36C36.2762 18.8333 36.5 19.0572 36.5 19.3333C36.5 19.6095 36.2762 19.8333 36 19.8333H33.3334C33.0572 19.8333 32.8334 19.6095 32.8334 19.3333Z" fill="#1E2124"/>
<path fill-rule="evenodd" clip-rule="evenodd" d="M34.6666 21.1666C34.3905 21.1666 34.1666 20.9428 34.1666 20.6666V18C34.1666 17.7239 34.3905 17.5 34.6666 17.5C34.9428 17.5 35.1666 17.7239 35.1666 18V20.6666C35.1666 20.9428 34.9428 21.1666 34.6666 21.1666Z" fill="#1E2124"/>
<path d="M42.9531 25.5H45.2969V21.4844H47.0859L49.25 25.5H51.8438L49.4375 21.1016C50.7266 20.5469 51.4375 19.4219 51.4375 17.875C51.4375 15.6328 49.9609 14.1875 47.3906 14.1875H42.9531V25.5ZM45.2969 19.5781V16.1094H46.9531C48.3438 16.1172 49.0234 16.7344 49.0156 17.875C49.0234 19.0078 48.3438 19.5781 46.9531 19.5781H45.2969ZM56.7188 25.6719C58.8125 25.6641 60.2188 24.6484 60.5469 23.0781H58.3438C58.1172 23.5859 57.5547 23.9297 56.7656 23.9375C55.5703 23.9297 54.8125 23.1406 54.8125 21.8594H60.6094V21.2031C60.6094 18.3125 58.8516 16.9062 56.625 16.9062C54.1406 16.9062 52.5234 18.6797 52.5312 21.2969C52.5234 23.9844 54.1172 25.6641 56.7188 25.6719ZM54.8125 20.4062C54.8594 19.4297 55.6094 18.6328 56.6719 18.6406C57.7031 18.6328 58.4141 19.375 58.4219 20.4062H54.8125ZM65.875 28.8594C68.2891 28.8594 69.9922 27.7578 70 25.5938V17.0156H67.7031V18.4375H67.6094C67.2969 17.75 66.6094 16.9062 65.1875 16.9062C63.3125 16.9062 61.7344 18.3359 61.7344 21.2031C61.7344 24.0312 63.2734 25.3828 65.1875 25.375C66.5547 25.3828 67.3047 24.6875 67.6094 24H67.7188V25.5469C67.7109 26.7266 66.9922 27.1875 65.9219 27.1875C65 27.1875 64.3594 26.8828 64.2344 26.2031H61.9531C62.0859 27.8047 63.5312 28.8594 65.875 28.8594ZM64.1094 21.2344C64.1016 19.7734 64.7266 18.75 65.9062 18.75C67.0703 18.75 67.7188 19.7266 67.7188 21.2344C67.7188 22.7422 67.0625 23.6328 65.9062 23.6406C64.7344 23.6328 64.1016 22.7031 64.1094 21.2344ZM71.7969 25.5H74.1094V17.0156H71.7969V25.5ZM71.6875 14.7344C71.6875 15.375 72.2578 15.9062 72.9531 15.9062C73.6406 15.9062 74.2109 15.375 74.2031 14.7344C74.2109 14.0781 73.6406 13.5547 72.9531 13.5469C72.2578 13.5547 71.6875 14.0781 71.6875 14.7344ZM80.75 19.5312H82.9219C82.7969 17.9219 81.4688 16.9062 79.3281 16.9062C77.1406 16.9062 75.7422 17.9219 75.75 19.5469C75.7422 20.8047 76.5703 21.6328 78.1875 21.9531L79.5938 22.2344C80.3906 22.3984 80.75 22.6719 80.75 23.1094C80.75 23.6562 80.1875 23.9922 79.3438 24C78.4922 23.9922 77.9531 23.6484 77.8438 22.9844H75.5156C75.7109 24.6406 77.0547 25.6641 79.3438 25.6719C81.6016 25.6641 83.1016 24.5469 83.1094 22.875C83.1016 21.6562 82.3047 20.9219 80.6562 20.5781L79.1406 20.2656C78.3359 20.1016 78.0391 19.8047 78.0469 19.4219C78.0391 18.9062 78.6094 18.5547 79.3594 18.5469C80.1328 18.5547 80.6484 18.9375 80.75 19.5312ZM89 17.0156H87.4062V14.9844H85.0938V17.0156H83.9219V18.75H85.0938V23.2188C85.0781 24.8672 86.2188 25.6172 87.8906 25.6094C88.4609 25.6172 88.875 25.5703 89.125 25.5312V23.7031C88.8438 23.7266 88.4375 23.75 88.2031 23.75C87.7344 23.7344 87.3984 23.5703 87.4062 22.8906V18.75H89V17.0156ZM94.2031 25.6719C96.2969 25.6641 97.7031 24.6484 98.0312 23.0781H95.8281C95.6016 23.5859 95.0391 23.9297 94.25 23.9375C93.0547 23.9297 92.2969 23.1406 92.2969 21.8594H98.0938V21.2031C98.0938 18.3125 96.3359 16.9062 94.1094 16.9062C91.625 16.9062 90.0078 18.6797 90.0156 21.2969C90.0078 23.9844 91.6016 25.6641 94.2031 25.6719ZM92.2969 20.4062C92.3438 19.4297 93.0938 18.6328 94.1562 18.6406C95.1875 18.6328 95.8984 19.375 95.9062 20.4062H92.2969ZM99.5469 25.5H101.859V20.6719C101.852 19.6328 102.625 18.9062 103.672 18.9062C103.992 18.9062 104.438 18.9609 104.656 19.0312V16.9688C104.453 16.9219 104.156 16.8906 103.922 16.8906C102.969 16.8906 102.18 17.4453 101.875 18.4844H101.781V17.0156H99.5469V25.5Z" fill="black"/>
</svg>
