<svg width="96" height="40" viewBox="0 0 96 40" fill="none" xmlns="http://www.w3.org/2000/svg">
<rect width="96" height="40" rx="8" fill="white"/>
<rect width="96" height="40" rx="8" fill="#37ABEC"/>
<path fill-rule="evenodd" clip-rule="evenodd" d="M23.8333 16C23.8333 14.5272 25.0272 13.3333 26.4999 13.3333H32.3583C33.0656 13.3333 33.7438 13.6143 34.2439 14.1144L36.3855 16.256C36.8856 16.7561 37.1666 17.4344 37.1666 18.1416V24C37.1666 25.4728 35.9727 26.6667 34.4999 26.6667H26.4999C25.0272 26.6667 23.8333 25.4728 23.8333 24V16ZM32.9999 16.6667C32.9999 16.9428 32.7761 17.1667 32.4999 17.1667L28.4999 17.1667C28.2238 17.1667 27.9999 16.9428 27.9999 16.6667C27.9999 16.3905 28.2238 16.1667 28.4999 16.1667L32.4999 16.1667C32.7761 16.1667 32.9999 16.3905 32.9999 16.6667ZM27.1666 24.6667V22C27.1666 21.6318 27.4651 21.3333 27.8333 21.3333H33.1666C33.5348 21.3333 33.8333 21.6318 33.8333 22V24.6667C33.8333 25.0349 33.5348 25.3333 33.1666 25.3333H27.8333C27.4651 25.3333 27.1666 25.0349 27.1666 24.6667Z" fill="white"/>
<path d="M48.9941 18.0898H50.1973C50.1494 16.5859 48.7686 15.4648 46.8477 15.4648C44.9268 15.4648 43.4365 16.5654 43.4434 18.2402C43.4365 19.5801 44.4072 20.373 45.959 20.8242L47.1758 21.1523C48.2148 21.4463 49.1309 21.8154 49.1309 22.7793C49.1309 23.8594 48.1055 24.5635 46.7383 24.5566C45.5625 24.5635 44.5303 24.0371 44.4277 22.9297H43.1699C43.2861 24.5703 44.6055 25.6709 46.7383 25.6777C49.0352 25.6709 50.334 24.4199 50.334 22.8066C50.334 20.9541 48.5908 20.3457 47.5312 20.0723L46.5469 19.7988C45.7949 19.6143 44.6396 19.2246 44.6328 18.1855C44.6396 17.2422 45.4941 16.5586 46.8066 16.5586C47.9893 16.5586 48.8916 17.1191 48.9941 18.0898ZM51.5918 23.3945C51.5918 24.8438 52.7129 25.6709 54.1211 25.6777C55.4131 25.6709 56.0898 24.9873 56.3359 24.4883H56.3906V25.5H57.5527V20.6055C57.5596 18.2676 55.7344 17.9805 54.7637 17.9805C53.123 17.9805 51.9609 18.8076 51.8105 20.0039H53.041C53.2051 19.4365 53.7725 19.0059 54.709 19.0059C55.8301 19.0059 56.3906 19.5527 56.3906 20.4961V21.0977C56.0557 21.1045 54.8594 21.1729 54.3809 21.207C53.0957 21.3027 51.5918 21.6924 51.5918 23.3945ZM52.7676 23.4492C52.7744 22.6357 53.4512 22.2598 54.5176 22.1914C54.873 22.1709 56.042 22.082 56.3906 22.0615V22.8066C56.3906 23.7432 55.6523 24.6318 54.3262 24.625C53.4238 24.6318 52.7744 24.2354 52.7676 23.4492ZM65.2773 18.0762H63.9922L61.9688 23.9688H61.8867L59.8633 18.0762H58.5781L61.3125 25.5H62.5293L65.2773 18.0762ZM69.4199 25.6504C70.9512 25.6572 72.0518 24.8916 72.4004 23.7637H71.1426C70.8691 24.2217 70.3086 24.6113 69.4199 24.6113C68.1006 24.6113 67.1846 23.75 67.123 22.1777H72.5098V21.6855C72.5166 18.9375 70.8691 17.9805 69.3105 17.9805C67.2939 17.9805 65.9473 19.5664 65.9473 21.8496C65.9473 24.126 67.2734 25.6572 69.4199 25.6504ZM67.1299 21.1797C67.2119 20.0312 68.0254 19.0195 69.3105 19.0195C70.5342 19.0195 71.3135 19.9424 71.3203 21.1797H67.1299Z" fill="white"/>
</svg>
