<svg width="100" height="44" viewBox="0 0 100 44" fill="none" xmlns="http://www.w3.org/2000/svg">
<rect x="2" y="2" width="96" height="40" rx="8" fill="white"/>
<rect x="1" y="1" width="98" height="42" rx="9" stroke="#279BDC" stroke-opacity="0.2" stroke-width="2"/>
<rect opacity="0.5" x="2.5" y="2.5" width="95" height="39" rx="7.5" fill="white" stroke="#37ABEC"/>
<path fill-rule="evenodd" clip-rule="evenodd" d="M28.4999 15.8333C27.3033 15.8333 26.3333 16.8034 26.3333 18V26C26.3333 27.1966 27.3033 28.1667 28.4999 28.1667H28.6666V24.6667C28.6666 23.6541 29.4874 22.8333 30.4999 22.8333H34.4999C35.5124 22.8333 36.3333 23.6541 36.3333 24.6667V28.1667H36.4999C37.6965 28.1667 38.6666 27.1966 38.6666 26V20.1416C38.6666 19.567 38.4383 19.0159 38.032 18.6095L35.8904 16.4679C35.484 16.0616 34.9329 15.8333 34.3583 15.8333H28.4999ZM36.4999 29.1667C38.2488 29.1667 39.6666 27.7489 39.6666 26V20.1416C39.6666 19.3018 39.333 18.4963 38.7391 17.9024L36.5975 15.7608C36.0036 15.167 35.1982 14.8333 34.3583 14.8333H28.4999C26.751 14.8333 25.3333 16.2511 25.3333 18V26C25.3333 27.7489 26.751 29.1667 28.4999 29.1667H36.4999ZM35.3333 28.1667V24.6667C35.3333 24.2064 34.9602 23.8333 34.4999 23.8333H30.4999C30.0397 23.8333 29.6666 24.2064 29.6666 24.6667V28.1667H35.3333ZM29.9999 18.6667C29.9999 18.3905 30.2238 18.1667 30.4999 18.1667L34.4999 18.1667C34.7761 18.1667 34.9999 18.3905 34.9999 18.6667C34.9999 18.9428 34.7761 19.1667 34.4999 19.1667L30.4999 19.1667C30.2238 19.1667 29.9999 18.9428 29.9999 18.6667Z" fill="#28303F"/>
<path d="M50.9941 20.0898H52.1973C52.1494 18.5859 50.7686 17.4648 48.8477 17.4648C46.9268 17.4648 45.4365 18.5654 45.4434 20.2402C45.4365 21.5801 46.4072 22.373 47.959 22.8242L49.1758 23.1523C50.2148 23.4463 51.1309 23.8154 51.1309 24.7793C51.1309 25.8594 50.1055 26.5635 48.7383 26.5566C47.5625 26.5635 46.5303 26.0371 46.4277 24.9297H45.1699C45.2861 26.5703 46.6055 27.6709 48.7383 27.6777C51.0352 27.6709 52.334 26.4199 52.334 24.8066C52.334 22.9541 50.5908 22.3457 49.5312 22.0723L48.5469 21.7988C47.7949 21.6143 46.6396 21.2246 46.6328 20.1855C46.6396 19.2422 47.4941 18.5586 48.8066 18.5586C49.9893 18.5586 50.8916 19.1191 50.9941 20.0898ZM53.5918 25.3945C53.5918 26.8438 54.7129 27.6709 56.1211 27.6777C57.4131 27.6709 58.0898 26.9873 58.3359 26.4883H58.3906V27.5H59.5527V22.6055C59.5596 20.2676 57.7344 19.9805 56.7637 19.9805C55.123 19.9805 53.9609 20.8076 53.8105 22.0039H55.041C55.2051 21.4365 55.7725 21.0059 56.709 21.0059C57.8301 21.0059 58.3906 21.5527 58.3906 22.4961V23.0977C58.0557 23.1045 56.8594 23.1729 56.3809 23.207C55.0957 23.3027 53.5918 23.6924 53.5918 25.3945ZM54.7676 25.4492C54.7744 24.6357 55.4512 24.2598 56.5176 24.1914C56.873 24.1709 58.042 24.082 58.3906 24.0615V24.8066C58.3906 25.7432 57.6523 26.6318 56.3262 26.625C55.4238 26.6318 54.7744 26.2354 54.7676 25.4492ZM67.2773 20.0762H65.9922L63.9688 25.9688H63.8867L61.8633 20.0762H60.5781L63.3125 27.5H64.5293L67.2773 20.0762ZM71.4199 27.6504C72.9512 27.6572 74.0518 26.8916 74.4004 25.7637H73.1426C72.8691 26.2217 72.3086 26.6113 71.4199 26.6113C70.1006 26.6113 69.1846 25.75 69.123 24.1777H74.5098V23.6855C74.5166 20.9375 72.8691 19.9805 71.3105 19.9805C69.2939 19.9805 67.9473 21.5664 67.9473 23.8496C67.9473 26.126 69.2734 27.6572 71.4199 27.6504ZM69.1299 23.1797C69.2119 22.0312 70.0254 21.0195 71.3105 21.0195C72.5342 21.0195 73.3135 21.9424 73.3203 23.1797H69.1299Z" fill="black"/>
</svg>
