<svg width="120" height="40" viewBox="0 0 120 40" fill="none" xmlns="http://www.w3.org/2000/svg">
<rect width="120" height="40" rx="8" fill="white"/>
<rect width="120" height="40" rx="8" fill="#F37C4B"/>
<path fill-rule="evenodd" clip-rule="evenodd" d="M45.1234 13.7303C47.1444 11.6577 50.4279 11.6577 52.4489 13.7303C54.4076 15.739 54.4672 18.9695 52.5854 21.0522L47.8135 26.3341C46.2976 28.012 43.7023 28.012 42.1864 26.3341L37.4145 21.0523C35.5327 18.9695 35.5923 15.739 37.551 13.7303C39.572 11.6577 42.8555 11.6577 44.8766 13.7303L45 13.8569L45.1234 13.7303ZM48.5416 15.4167C48.5416 15.0715 48.8214 14.7917 49.1666 14.7917C50.4323 14.7917 51.4583 15.8177 51.4583 17.0833C51.4583 17.4285 51.1784 17.7083 50.8333 17.7083C50.4881 17.7083 50.2083 17.4285 50.2083 17.0833C50.2083 16.508 49.7419 16.0417 49.1666 16.0417C48.8214 16.0417 48.5416 15.7618 48.5416 15.4167Z" fill="white"/>
<path d="M60.0938 25.5H65.918V24.4062H61.3242V15.6016H60.0938V25.5ZM67.4082 25.5H68.584V18.0762H67.4082V25.5ZM67.1758 16.0664C67.1689 16.4971 67.5449 16.8457 67.9961 16.8457C68.4473 16.8457 68.8232 16.4971 68.8301 16.0664C68.8232 15.6289 68.4473 15.2803 67.9961 15.2871C67.5449 15.2803 67.1689 15.6289 67.1758 16.0664ZM70.457 25.5H71.6328V22.7314L72.4189 22L75.1738 25.5H76.6641L73.3008 21.2549L76.4316 18.0762H74.9824L71.7695 21.3574H71.6328V15.6016H70.457V25.5ZM80.4922 25.6504C82.0234 25.6572 83.124 24.8916 83.4727 23.7637H82.2148C81.9414 24.2217 81.3809 24.6113 80.4922 24.6113C79.1729 24.6113 78.2568 23.75 78.1953 22.1777H83.582V21.6855C83.5889 18.9375 81.9414 17.9805 80.3828 17.9805C78.3662 17.9805 77.0195 19.5664 77.0195 21.8496C77.0195 24.126 78.3457 25.6572 80.4922 25.6504ZM78.2021 21.1797C78.2842 20.0312 79.0977 19.0195 80.3828 19.0195C81.6064 19.0195 82.3857 19.9424 82.3926 21.1797H78.2021Z" fill="white"/>
</svg>
