<svg width="96" height="40" viewBox="0 0 96 40" fill="none" xmlns="http://www.w3.org/2000/svg">
<rect width="96" height="40" rx="8" fill="white"/>
<rect opacity="0.5" x="0.5" y="0.5" width="95" height="39" rx="7.5" fill="white" stroke="#37ABEC"/>
<path fill-rule="evenodd" clip-rule="evenodd" d="M26.4999 13.8333C25.3033 13.8333 24.3333 14.8034 24.3333 16V24C24.3333 25.1966 25.3033 26.1667 26.4999 26.1667H26.6666V22.6667C26.6666 21.6541 27.4874 20.8333 28.4999 20.8333H32.4999C33.5124 20.8333 34.3333 21.6541 34.3333 22.6667V26.1667H34.4999C35.6965 26.1667 36.6666 25.1966 36.6666 24V18.1416C36.6666 17.567 36.4383 17.0159 36.032 16.6095L33.8904 14.4679C33.484 14.0616 32.9329 13.8333 32.3583 13.8333H26.4999ZM34.4999 27.1667C36.2488 27.1667 37.6666 25.7489 37.6666 24V18.1416C37.6666 17.3018 37.333 16.4963 36.7391 15.9024L34.5975 13.7608C34.0036 13.167 33.1982 12.8333 32.3583 12.8333H26.4999C24.751 12.8333 23.3333 14.2511 23.3333 16V24C23.3333 25.7489 24.751 27.1667 26.4999 27.1667H34.4999ZM33.3333 26.1667V22.6667C33.3333 22.2064 32.9602 21.8333 32.4999 21.8333H28.4999C28.0397 21.8333 27.6666 22.2064 27.6666 22.6667V26.1667H33.3333ZM27.9999 16.6667C27.9999 16.3905 28.2238 16.1667 28.4999 16.1667L32.4999 16.1667C32.7761 16.1667 32.9999 16.3905 32.9999 16.6667C32.9999 16.9428 32.7761 17.1667 32.4999 17.1667L28.4999 17.1667C28.2238 17.1667 27.9999 16.9428 27.9999 16.6667Z" fill="#28303F"/>
<path d="M48.9941 18.0898H50.1973C50.1494 16.5859 48.7686 15.4648 46.8477 15.4648C44.9268 15.4648 43.4365 16.5654 43.4434 18.2402C43.4365 19.5801 44.4072 20.373 45.959 20.8242L47.1758 21.1523C48.2148 21.4463 49.1309 21.8154 49.1309 22.7793C49.1309 23.8594 48.1055 24.5635 46.7383 24.5566C45.5625 24.5635 44.5303 24.0371 44.4277 22.9297H43.1699C43.2861 24.5703 44.6055 25.6709 46.7383 25.6777C49.0352 25.6709 50.334 24.4199 50.334 22.8066C50.334 20.9541 48.5908 20.3457 47.5312 20.0723L46.5469 19.7988C45.7949 19.6143 44.6396 19.2246 44.6328 18.1855C44.6396 17.2422 45.4941 16.5586 46.8066 16.5586C47.9893 16.5586 48.8916 17.1191 48.9941 18.0898ZM51.5918 23.3945C51.5918 24.8438 52.7129 25.6709 54.1211 25.6777C55.4131 25.6709 56.0898 24.9873 56.3359 24.4883H56.3906V25.5H57.5527V20.6055C57.5596 18.2676 55.7344 17.9805 54.7637 17.9805C53.123 17.9805 51.9609 18.8076 51.8105 20.0039H53.041C53.2051 19.4365 53.7725 19.0059 54.709 19.0059C55.8301 19.0059 56.3906 19.5527 56.3906 20.4961V21.0977C56.0557 21.1045 54.8594 21.1729 54.3809 21.207C53.0957 21.3027 51.5918 21.6924 51.5918 23.3945ZM52.7676 23.4492C52.7744 22.6357 53.4512 22.2598 54.5176 22.1914C54.873 22.1709 56.042 22.082 56.3906 22.0615V22.8066C56.3906 23.7432 55.6523 24.6318 54.3262 24.625C53.4238 24.6318 52.7744 24.2354 52.7676 23.4492ZM65.2773 18.0762H63.9922L61.9688 23.9688H61.8867L59.8633 18.0762H58.5781L61.3125 25.5H62.5293L65.2773 18.0762ZM69.4199 25.6504C70.9512 25.6572 72.0518 24.8916 72.4004 23.7637H71.1426C70.8691 24.2217 70.3086 24.6113 69.4199 24.6113C68.1006 24.6113 67.1846 23.75 67.123 22.1777H72.5098V21.6855C72.5166 18.9375 70.8691 17.9805 69.3105 17.9805C67.2939 17.9805 65.9473 19.5664 65.9473 21.8496C65.9473 24.126 67.2734 25.6572 69.4199 25.6504ZM67.1299 21.1797C67.2119 20.0312 68.0254 19.0195 69.3105 19.0195C70.5342 19.0195 71.3135 19.9424 71.3203 21.1797H67.1299Z" fill="black"/>
</svg>
