<svg width="44" height="44" viewBox="0 0 44 44" fill="none" xmlns="http://www.w3.org/2000/svg">
<rect x="2" y="2" width="40" height="40" rx="8" fill="white"/>
<rect x="1" y="1" width="42" height="42" rx="9" stroke="#279BDC" stroke-opacity="0.2" stroke-width="2"/>
<rect opacity="0.5" x="2.5" y="2.5" width="39" height="39" rx="7.5" fill="white" stroke="#37ABEC"/>
<g clip-path="url(#clip0_9_606)">
<path fill-rule="evenodd" clip-rule="evenodd" d="M17.9999 15.8333C16.8033 15.8333 15.8333 16.8034 15.8333 18V26C15.8333 27.1966 16.8033 28.1667 17.9999 28.1667H18.1666V24.6667C18.1666 23.6541 18.9874 22.8333 19.9999 22.8333H23.9999C25.0124 22.8333 25.8333 23.6541 25.8333 24.6667V28.1667H25.9999C27.1965 28.1667 28.1666 27.1966 28.1666 26V20.1416C28.1666 19.567 27.9383 19.0159 27.532 18.6095L25.3904 16.4679C24.984 16.0616 24.4329 15.8333 23.8583 15.8333H17.9999ZM25.9999 29.1667C27.7488 29.1667 29.1666 27.7489 29.1666 26V20.1416C29.1666 19.3018 28.833 18.4963 28.2391 17.9024L26.0975 15.7608C25.5036 15.167 24.6982 14.8333 23.8583 14.8333H17.9999C16.251 14.8333 14.8333 16.2511 14.8333 18V26C14.8333 27.7489 16.251 29.1667 17.9999 29.1667H25.9999ZM24.8333 28.1667V24.6667C24.8333 24.2064 24.4602 23.8333 23.9999 23.8333H19.9999C19.5397 23.8333 19.1666 24.2064 19.1666 24.6667V28.1667H24.8333ZM19.4999 18.6667C19.4999 18.3905 19.7238 18.1667 19.9999 18.1667L23.9999 18.1667C24.2761 18.1667 24.4999 18.3905 24.4999 18.6667C24.4999 18.9428 24.2761 19.1667 23.9999 19.1667L19.9999 19.1667C19.7238 19.1667 19.4999 18.9428 19.4999 18.6667Z" fill="#28303F"/>
</g>
<defs>
<clipPath id="clip0_9_606">
<rect width="16" height="16" fill="white" transform="translate(14 14)"/>
</clipPath>
</defs>
</svg>
