<svg width="40" height="40" viewBox="0 0 40 40" fill="none" xmlns="http://www.w3.org/2000/svg">
<rect x="0.5" y="0.5" width="39" height="39" rx="7.5" fill="#37ABEC" stroke="#37ABEC"/>
<path fill-rule="evenodd" clip-rule="evenodd" d="M13.3333 16C13.3333 14.5272 14.5272 13.3333 15.9999 13.3333H21.8583C22.5656 13.3333 23.2438 13.6143 23.7439 14.1144L25.8855 16.256C26.3856 16.7561 26.6666 17.4344 26.6666 18.1416V24C26.6666 25.4728 25.4727 26.6667 23.9999 26.6667H15.9999C14.5272 26.6667 13.3333 25.4728 13.3333 24V16ZM22.4999 16.6667C22.4999 16.9428 22.2761 17.1667 21.9999 17.1667L17.9999 17.1667C17.7238 17.1667 17.4999 16.9428 17.4999 16.6667C17.4999 16.3905 17.7238 16.1667 17.9999 16.1667L21.9999 16.1667C22.2761 16.1667 22.4999 16.3905 22.4999 16.6667ZM16.6666 24.6667V22C16.6666 21.6318 16.9651 21.3333 17.3333 21.3333H22.6666C23.0348 21.3333 23.3333 21.6318 23.3333 22V24.6667C23.3333 25.0349 23.0348 25.3333 22.6666 25.3333H17.3333C16.9651 25.3333 16.6666 25.0349 16.6666 24.6667Z" fill="white"/>
</svg>
