<svg width="40" height="40" viewBox="0 0 40 40" fill="none" xmlns="http://www.w3.org/2000/svg">
<rect width="40" height="40" rx="8" fill="white"/>
<rect opacity="0.5" x="0.5" y="0.5" width="39" height="39" rx="7.5" fill="white" stroke="#37ABEC"/>
<g clip-path="url(#clip0_9_800)">
<path fill-rule="evenodd" clip-rule="evenodd" d="M15.9999 13.8333C14.8033 13.8333 13.8333 14.8034 13.8333 16V24C13.8333 25.1966 14.8033 26.1667 15.9999 26.1667H16.1666V22.6667C16.1666 21.6541 16.9874 20.8333 17.9999 20.8333H21.9999C23.0124 20.8333 23.8333 21.6541 23.8333 22.6667V26.1667H23.9999C25.1965 26.1667 26.1666 25.1966 26.1666 24V18.1416C26.1666 17.567 25.9383 17.0159 25.532 16.6095L23.3904 14.4679C22.984 14.0616 22.4329 13.8333 21.8583 13.8333H15.9999ZM23.9999 27.1667C25.7488 27.1667 27.1666 25.7489 27.1666 24V18.1416C27.1666 17.3018 26.833 16.4963 26.2391 15.9024L24.0975 13.7608C23.5036 13.167 22.6982 12.8333 21.8583 12.8333H15.9999C14.251 12.8333 12.8333 14.2511 12.8333 16V24C12.8333 25.7489 14.251 27.1667 15.9999 27.1667H23.9999ZM22.8333 26.1667V22.6667C22.8333 22.2064 22.4602 21.8333 21.9999 21.8333H17.9999C17.5397 21.8333 17.1666 22.2064 17.1666 22.6667V26.1667H22.8333ZM17.4999 16.6667C17.4999 16.3905 17.7238 16.1667 17.9999 16.1667L21.9999 16.1667C22.2761 16.1667 22.4999 16.3905 22.4999 16.6667C22.4999 16.9428 22.2761 17.1667 21.9999 17.1667L17.9999 17.1667C17.7238 17.1667 17.4999 16.9428 17.4999 16.6667Z" fill="#28303F"/>
</g>
<defs>
<clipPath id="clip0_9_800">
<rect width="16" height="16" fill="white" transform="translate(12 12)"/>
</clipPath>
</defs>
</svg>
