<svg width="64" height="64" viewBox="0 0 64 64" fill="none" xmlns="http://www.w3.org/2000/svg">
<path d="M0 10C0 4.47715 4.47715 0 10 0H54C59.5228 0 64 4.47715 64 10V64H0V10Z" fill="#37ABEC"/>
<path d="M20.0848 50H21.9408V39.776H25.4128V38.208H16.6288V39.776H20.0848V50ZM31.4773 50.208C34.5013 50.208 36.6133 47.856 36.6133 44.064C36.6133 40.272 34.5013 38 31.4773 38C28.4533 38 26.3573 40.272 26.3573 44.064C26.3573 47.856 28.4533 50.208 31.4773 50.208ZM31.4773 48.592C29.5253 48.592 28.2613 46.816 28.2613 44.064C28.2613 41.296 29.5253 39.616 31.4773 39.616C33.4293 39.616 34.7093 41.296 34.7093 44.064C34.7093 46.816 33.4293 48.592 31.4773 48.592ZM39.0598 50H40.9158V45.536H42.6918C45.2518 45.536 47.1238 44.352 47.1238 41.776C47.1238 39.12 45.2518 38.208 42.6278 38.208H39.0598V50ZM40.9158 44.048V39.712H42.4518C44.3238 39.712 45.2998 40.224 45.2998 41.776C45.2998 43.328 44.4038 44.048 42.5158 44.048H40.9158Z" fill="white"/>
<path fill-rule="evenodd" clip-rule="evenodd" d="M22.6907 28.1142C23.122 28.6533 23.9086 28.7407 24.4477 28.3095L32.0001 22.2675L39.5526 28.3095C40.0917 28.7407 40.8783 28.6533 41.3095 28.1142C41.7408 27.5752 41.6534 26.7885 41.1143 26.3573L32.781 19.6906C32.3245 19.3254 31.6758 19.3254 31.2193 19.6906L22.8859 26.3573C22.3468 26.7885 22.2594 27.5752 22.6907 28.1142Z" fill="white"/>
</svg>
