<svg width="96" height="40" viewBox="0 0 96 40" fill="none" xmlns="http://www.w3.org/2000/svg">
<rect width="96" height="40" rx="8" fill="white"/>
<rect width="96" height="40" rx="8" fill="#37ABEC"/>
<path fill-rule="evenodd" clip-rule="evenodd" d="M19.3333 16C19.3333 14.8034 20.3033 13.8333 21.4999 13.8333H25.4999C25.7761 13.8333 25.9999 13.6095 25.9999 13.3333C25.9999 13.0572 25.7761 12.8333 25.4999 12.8333H21.4999C19.751 12.8333 18.3333 14.2511 18.3333 16V24C18.3333 25.7489 19.751 27.1667 21.4999 27.1667H29.4999C31.2488 27.1667 32.6666 25.7489 32.6666 24V20C32.6666 19.7239 32.4427 19.5 32.1666 19.5C31.8904 19.5 31.6666 19.7239 31.6666 20V24C31.6666 25.1966 30.6965 26.1667 29.4999 26.1667H21.4999C20.3033 26.1667 19.3333 25.1966 19.3333 24V16ZM28.4459 13.7847C29.0478 13.1829 30.0236 13.1829 30.6254 13.7847L31.7152 14.8745C32.317 15.4763 32.317 16.4521 31.7152 17.054L30.749 18.0202C30.6731 17.9826 30.5933 17.942 30.5106 17.8985C29.9536 17.6052 29.2927 17.1937 28.7995 16.7005C28.3062 16.2072 27.8947 15.5463 27.6015 14.9894C27.5579 14.9066 27.5173 14.8268 27.4797 14.7509L28.4459 13.7847ZM28.0924 17.4076C28.6761 17.9913 29.4184 18.4506 30.0062 18.7629L26.2066 22.5626C25.9708 22.7983 25.6649 22.9513 25.3348 22.9985L23.0463 23.3254C22.5378 23.398 22.1019 22.9621 22.1745 22.4536L22.5015 20.1651C22.5486 19.835 22.7016 19.5291 22.9374 19.2933L26.737 15.4937C27.0493 16.0816 27.5087 16.8239 28.0924 17.4076Z" fill="white"/>
<path d="M40.9844 25.5H43.2812L45.4531 18.0312H45.5469L47.7031 25.5H50L53.2344 14.1875H50.6719L48.7656 22.1094H48.6719L46.5938 14.1875H44.3906L42.3125 22.0938H42.2188L40.3125 14.1875H37.75L40.9844 25.5ZM53.8594 25.5H56.1719V20.6719C56.1641 19.6328 56.9375 18.9062 57.9844 18.9062C58.3047 18.9062 58.75 18.9609 58.9688 19.0312V16.9688C58.7656 16.9219 58.4688 16.8906 58.2344 16.8906C57.2812 16.8906 56.4922 17.4453 56.1875 18.4844H56.0938V17.0156H53.8594V25.5ZM60.0938 25.5H62.4062V17.0156H60.0938V25.5ZM59.9844 14.7344C59.9844 15.375 60.5547 15.9062 61.25 15.9062C61.9375 15.9062 62.5078 15.375 62.5 14.7344C62.5078 14.0781 61.9375 13.5547 61.25 13.5469C60.5547 13.5547 59.9844 14.0781 59.9844 14.7344ZM68.6719 17.0156H67.0781V14.9844H64.7656V17.0156H63.5938V18.75H64.7656V23.2188C64.75 24.8672 65.8906 25.6172 67.5625 25.6094C68.1328 25.6172 68.5469 25.5703 68.7969 25.5312V23.7031C68.5156 23.7266 68.1094 23.75 67.875 23.75C67.4062 23.7344 67.0703 23.5703 67.0781 22.8906V18.75H68.6719V17.0156ZM73.875 25.6719C75.9688 25.6641 77.375 24.6484 77.7031 23.0781H75.5C75.2734 23.5859 74.7109 23.9297 73.9219 23.9375C72.7266 23.9297 71.9688 23.1406 71.9688 21.8594H77.7656V21.2031C77.7656 18.3125 76.0078 16.9062 73.7812 16.9062C71.2969 16.9062 69.6797 18.6797 69.6875 21.2969C69.6797 23.9844 71.2734 25.6641 73.875 25.6719ZM71.9688 20.4062C72.0156 19.4297 72.7656 18.6328 73.8281 18.6406C74.8594 18.6328 75.5703 19.375 75.5781 20.4062H71.9688Z" fill="white"/>
</svg>
