<svg width="120" height="120" viewBox="0 0 120 120" fill="none" xmlns="http://www.w3.org/2000/svg">
<circle cx="60" cy="60" r="60" fill="#EEEEEE"/>
<g opacity="0.2">
<path fill-rule="evenodd" clip-rule="evenodd" d="M41.3763 67.8478C46.0141 65.529 52.2462 64.167 58.9935 64.167C65.7408 64.167 71.9728 65.529 76.6108 67.8478C81.0988 70.0918 84.8268 73.6546 84.8268 78.3334C84.8268 83.0122 81.0988 86.575 76.6108 88.819C71.9728 91.1382 65.7408 92.5002 58.9935 92.5002C52.2462 92.5002 46.0141 91.1382 41.3763 88.819C36.888 86.575 33.1602 83.0122 33.1602 78.3334C33.1602 73.6546 36.888 70.0918 41.3763 67.8478Z" fill="#28303F"/>
<path fill-rule="evenodd" clip-rule="evenodd" d="M43.1602 43.3333C43.1602 34.5888 50.249 27.5 58.9935 27.5C67.738 27.5 74.8268 34.5888 74.8268 43.3333C74.8268 52.0778 67.738 59.1667 58.9935 59.1667C50.249 59.1667 43.1602 52.0778 43.1602 43.3333Z" fill="#28303F"/>
</g>
</svg>
