<svg width="37" height="10" viewBox="0 0 37 10" fill="none" xmlns="http://www.w3.org/2000/svg">
<path d="M2.70703 9.01172C3.91992 9.01758 4.33594 8.26172 4.55859 7.91016H4.66406V8.88281H5.64844V0.398438H4.62891V3.52734H4.55859C4.3418 3.1875 3.95508 2.4375 2.71875 2.4375C1.11914 2.4375 0 3.70312 0 5.71875C0 7.74023 1.11914 9.01758 2.70703 9.01172ZM1.01953 5.69531C1.01953 4.36523 1.62305 3.33984 2.84766 3.33984C4.03125 3.33984 4.6582 4.2832 4.66406 5.69531C4.6582 7.125 4.01367 8.10938 2.84766 8.10938C1.64062 8.10938 1.01953 7.04883 1.01953 5.69531ZM10.0664 9.01172C11.3789 9.01758 12.3223 8.36133 12.6211 7.39453H11.543C11.3086 7.78711 10.8281 8.12109 10.0664 8.12109C8.93555 8.12109 8.15039 7.38281 8.09766 6.03516H12.7148V5.61328C12.7207 3.25781 11.3086 2.4375 9.97266 2.4375C8.24414 2.4375 7.08984 3.79688 7.08984 5.75391C7.08984 7.70508 8.22656 9.01758 10.0664 9.01172ZM8.10352 5.17969C8.17383 4.19531 8.87109 3.32812 9.97266 3.32812C11.0215 3.32812 11.6895 4.11914 11.6953 5.17969H8.10352ZM16.875 2.51953H15.4688V1.875C15.4629 1.21875 15.7793 0.925781 16.4883 0.925781C16.6172 0.925781 16.7988 0.9375 17.0156 0.972656V0.0703125C16.8047 0.0292969 16.5117 0 16.2656 0C15.1406 0 14.4551 0.621094 14.4492 1.65234V2.51953H13.4297V3.36328H14.4492V8.88281H15.4688V3.36328H16.875V2.51953ZM17.5781 7.07812C17.5781 8.32031 18.5391 9.0293 19.7461 9.03516C20.8535 9.0293 21.4336 8.44336 21.6445 8.01562H21.6914V8.88281H22.6875V4.6875C22.6934 2.68359 21.1289 2.4375 20.2969 2.4375C18.8906 2.4375 17.8945 3.14648 17.7656 4.17188H18.8203C18.9609 3.68555 19.4473 3.31641 20.25 3.31641C21.2109 3.31641 21.6914 3.78516 21.6914 4.59375V5.10938C21.4043 5.11523 20.3789 5.17383 19.9688 5.20312C18.8672 5.28516 17.5781 5.61914 17.5781 7.07812ZM18.5859 7.125C18.5918 6.42773 19.1719 6.10547 20.0859 6.04688C20.3906 6.0293 21.3926 5.95312 21.6914 5.93555V6.57422C21.6914 7.37695 21.0586 8.13867 19.9219 8.13281C19.1484 8.13867 18.5918 7.79883 18.5859 7.125ZM28.3242 6.26953C28.3184 7.45898 27.416 7.99805 26.6953 7.99219C25.8809 7.99805 25.3125 7.40625 25.3125 6.49219V2.51953H24.3047V6.5625C24.2988 8.17969 25.1602 8.96484 26.3672 8.96484C27.3223 8.96484 27.9551 8.44922 28.2539 7.80469H28.3242V8.88281H29.3203V2.51953H28.3242V6.26953ZM31.9453 0.398438H30.9375V8.88281H31.9453V0.398438ZM36.3281 2.51953H34.9922V0.996094H33.9727V2.51953H33.0117V3.36328H33.9727V7.3125C33.9785 8.4375 34.8691 8.96484 35.7188 8.96484C36.0176 8.96484 36.2637 8.94141 36.4219 8.91797V7.98047C36.2754 7.98633 36.0059 8.00391 35.8242 8.00391C35.3965 8.00391 34.9863 7.86914 34.9922 7.05469V3.36328H36.3281V2.51953Z" fill="black"/>
</svg>
