<svg width="25" height="10" viewBox="0 0 25 10" fill="none" xmlns="http://www.w3.org/2000/svg">
<path d="M3.44531 2.51953H2.03906V1.875C2.0332 1.21875 2.34961 0.925781 3.05859 0.925781C3.1875 0.925781 3.36914 0.9375 3.58594 0.972656V0.0703125C3.375 0.0292969 3.08203 0 2.83594 0C1.71094 0 1.02539 0.621094 1.01953 1.65234V2.51953H0V3.36328H1.01953V8.88281H2.03906V3.36328H3.44531V2.51953ZM4.64062 8.88281H5.64844V2.51953H4.64062V8.88281ZM4.44141 0.796875C4.43555 1.16602 4.75781 1.46484 5.14453 1.46484C5.53125 1.46484 5.85352 1.16602 5.85938 0.796875C5.85352 0.421875 5.53125 0.123047 5.14453 0.128906C4.75781 0.123047 4.43555 0.421875 4.44141 0.796875ZM8.26172 0.398438H7.25391V8.88281H8.26172V0.398438ZM10.875 0.398438H9.86719V8.88281H10.875V0.398438ZM15.1523 9.01172C16.4648 9.01758 17.4082 8.36133 17.707 7.39453H16.6289C16.3945 7.78711 15.9141 8.12109 15.1523 8.12109C14.0215 8.12109 13.2363 7.38281 13.1836 6.03516H17.8008V5.61328C17.8066 3.25781 16.3945 2.4375 15.0586 2.4375C13.3301 2.4375 12.1758 3.79688 12.1758 5.75391C12.1758 7.70508 13.3125 9.01758 15.1523 9.01172ZM13.1895 5.17969C13.2598 4.19531 13.957 3.32812 15.0586 3.32812C16.1074 3.32812 16.7754 4.11914 16.7812 5.17969H13.1895ZM21.5156 9.01172C22.7285 9.01758 23.1445 8.26172 23.3672 7.91016H23.4727V8.88281H24.457V0.398438H23.4375V3.52734H23.3672C23.1504 3.1875 22.7637 2.4375 21.5273 2.4375C19.9277 2.4375 18.8086 3.70312 18.8086 5.71875C18.8086 7.74023 19.9277 9.01758 21.5156 9.01172ZM19.8281 5.69531C19.8281 4.36523 20.4316 3.33984 21.6562 3.33984C22.8398 3.33984 23.4668 4.2832 23.4727 5.69531C23.4668 7.125 22.8223 8.10938 21.6562 8.10938C20.4492 8.10938 19.8281 7.04883 19.8281 5.69531Z" fill="black"/>
</svg>
