<svg width="29" height="10" viewBox="0 0 29 10" fill="none" xmlns="http://www.w3.org/2000/svg">
<path d="M3.44531 2.51953H2.03906V1.875C2.0332 1.21875 2.34961 0.925781 3.05859 0.925781C3.1875 0.925781 3.36914 0.9375 3.58594 0.972656V0.0703125C3.375 0.0292969 3.08203 0 2.83594 0C1.71094 0 1.02539 0.621094 1.01953 1.65234V2.51953H0V3.36328H1.01953V8.88281H2.03906V3.36328H3.44531V2.51953ZM6.97266 9.01172C8.70117 9.01758 9.86133 7.70508 9.85547 5.73047C9.86133 3.74414 8.70117 2.4375 6.97266 2.4375C5.23828 2.4375 4.06641 3.74414 4.06641 5.73047C4.06641 7.70508 5.23828 9.01758 6.97266 9.01172ZM5.07422 5.73047C5.08008 4.46484 5.67773 3.32812 6.97266 3.32812C8.25586 3.32812 8.84766 4.46484 8.84766 5.73047C8.84766 7.00195 8.25586 8.12109 6.97266 8.12109C5.67773 8.12109 5.08008 7.00195 5.07422 5.73047ZM13.7812 9.01172C15.1934 9.01758 16.1309 8.14453 16.2891 7.00781H15.2812C15.1055 7.70508 14.5312 8.10938 13.7812 8.10938C12.627 8.10938 11.8887 7.16602 11.8828 5.69531C11.8887 4.26562 12.6445 3.32812 13.7812 3.32812C14.6309 3.32812 15.1348 3.86133 15.2812 4.44141H16.2891C16.1309 3.24023 15.1113 2.4375 13.7578 2.4375C12.0293 2.4375 10.875 3.79688 10.875 5.73047C10.875 7.64062 11.9766 9.01758 13.7812 9.01172ZM21.5508 6.26953C21.5449 7.45898 20.6426 7.99805 19.9219 7.99219C19.1074 7.99805 18.5391 7.40625 18.5391 6.49219V2.51953H17.5312V6.5625C17.5254 8.17969 18.3867 8.96484 19.5938 8.96484C20.5488 8.96484 21.1816 8.44922 21.4805 7.80469H21.5508V8.88281H22.5469V2.51953H21.5508V6.26953ZM27.7031 4.17188H28.6875C28.5586 3.14062 27.7324 2.4375 26.4141 2.4375C25.0137 2.4375 24.0586 3.22266 24.0586 4.3125C24.0586 5.16211 24.6504 5.76562 25.7578 6.02344L26.7188 6.24609C27.4395 6.41602 27.7617 6.70898 27.7617 7.16016C27.7617 7.75781 27.1934 8.13867 26.2852 8.13281C25.4824 8.13867 25.0312 7.83984 24.9141 7.21875H23.8594C24.0293 8.37891 24.8789 9.01758 26.3086 9.01172C27.9023 9.01758 28.7988 8.20312 28.8047 7.10156C28.7988 6.2168 28.2422 5.64844 27.1055 5.37891L26.1562 5.14453C25.4121 4.96289 25.0723 4.67578 25.0664 4.25391C25.0723 3.7207 25.6289 3.29883 26.4141 3.29297C27.1582 3.29883 27.5625 3.64453 27.7031 4.17188Z" fill="black"/>
</svg>
