<svg width="44" height="20" viewBox="0 0 44 20" fill="none" xmlns="http://www.w3.org/2000/svg">
<rect width="44" height="20" rx="10" fill="#F5F5F5"/>
<path d="M12.8672 14H17.9883V12.8867H14.1562V5.51562H12.8672V14ZM19.207 14H20.4609V7.63672H19.207V14ZM19.043 5.91406C19.0488 6.32422 19.4062 6.6582 19.8398 6.65234C20.2676 6.6582 20.625 6.32422 20.625 5.91406C20.625 5.50391 20.2676 5.17578 19.8398 5.17578C19.4062 5.17578 19.0488 5.50391 19.043 5.91406ZM25.0195 7.63672H23.6484V7.08594C23.6484 6.46484 23.959 6.19531 24.6211 6.19531C24.7324 6.19531 24.9141 6.20703 25.1484 6.24219V5.19922C24.9023 5.15234 24.5918 5.11719 24.293 5.11719C23.127 5.11719 22.4004 5.76172 22.3945 6.89844V7.63672H21.4102V8.63281H22.3945V14H23.6484V8.63281H25.0195V7.63672ZM28.6406 14.1289C30.041 14.1289 31.0195 13.4375 31.3008 12.4062H30.0352C29.8242 12.793 29.3613 13.0977 28.6523 13.0977C27.6094 13.0977 26.8945 12.4121 26.8594 11.1992H31.3828V10.7539C31.3828 8.45117 30.0059 7.55469 28.5586 7.55469C26.7832 7.55469 25.6113 8.90234 25.6172 10.8594C25.6113 12.834 26.7656 14.1289 28.6406 14.1289ZM26.8652 10.2617C26.918 9.36523 27.5684 8.58008 28.5703 8.58594C29.5254 8.58008 30.1523 9.29492 30.1523 10.2617H26.8652Z" fill="#666666"/>
</svg>
