<svg width="30" height="9" viewBox="0 0 30 9" fill="none" xmlns="http://www.w3.org/2000/svg">
<path d="M1.00781 4.66406C1.00781 3.5625 1.71094 2.94141 2.66016 2.94141C3.57422 2.94141 4.125 3.50977 4.125 4.51172V8.48438H5.13281V4.44141C5.13281 2.80664 4.26562 2.03906 2.96484 2.03906C1.95703 2.03906 1.38867 2.46094 1.08984 3.11719H1.00781V0H0V8.48438H1.00781V4.66406ZM9.35156 8.61328C11.0801 8.61914 12.2402 7.30664 12.2344 5.33203C12.2402 3.3457 11.0801 2.03906 9.35156 2.03906C7.61719 2.03906 6.44531 3.3457 6.44531 5.33203C6.44531 7.30664 7.61719 8.61914 9.35156 8.61328ZM7.45312 5.33203C7.45898 4.06641 8.05664 2.92969 9.35156 2.92969C10.6348 2.92969 11.2266 4.06641 11.2266 5.33203C11.2266 6.60352 10.6348 7.72266 9.35156 7.72266C8.05664 7.72266 7.45898 6.60352 7.45312 5.33203ZM18.5625 2.12109H17.4609L15.7266 7.17188H15.6562L13.9219 2.12109H12.8203L15.1641 8.48438H16.207L18.5625 2.12109ZM22.1133 8.61328C23.4258 8.61914 24.3691 7.96289 24.668 6.99609H23.5898C23.3555 7.38867 22.875 7.72266 22.1133 7.72266C20.9824 7.72266 20.1973 6.98438 20.1445 5.63672H24.7617V5.21484C24.7676 2.85938 23.3555 2.03906 22.0195 2.03906C20.291 2.03906 19.1367 3.39844 19.1367 5.35547C19.1367 7.30664 20.2734 8.61914 22.1133 8.61328ZM20.1504 4.78125C20.2207 3.79688 20.918 2.92969 22.0195 2.92969C23.0684 2.92969 23.7363 3.7207 23.7422 4.78125H20.1504ZM26.0742 8.48438H27.082V4.47656C27.082 3.62109 27.7617 2.98828 28.6758 2.98828C28.9395 2.98828 29.209 3.04102 29.2852 3.05859V2.03906C29.168 2.02734 28.9102 2.02148 28.7578 2.01562C28.0078 2.02148 27.3457 2.44922 27.1172 3.09375H27.0469V2.12109H26.0742V8.48438Z" fill="black"/>
</svg>
