<svg width="24" height="24" viewBox="0 0 24 24" fill="none" xmlns="http://www.w3.org/2000/svg">
<path fill-rule="evenodd" clip-rule="evenodd" d="M12.1481 4.47638C14.5734 1.98924 18.5135 1.98924 20.9388 4.47638C23.2892 6.8868 23.3606 10.7633 21.1026 13.2627L15.3762 19.6009C13.5572 21.6144 10.4428 21.6144 8.62374 19.6009L2.89742 13.2627C0.639346 10.7634 0.710774 6.88682 3.06123 4.4764C5.4865 1.98925 9.42666 1.98925 11.8519 4.4764L11.315 5.00001L11.8519 4.4764L12 4.62825L12.1481 4.47638ZM19.8648 5.5236C18.0283 3.64016 15.0586 3.64017 13.222 5.5236L12.537 6.22613C12.3958 6.37089 12.2022 6.45252 12 6.45252C11.7978 6.45252 11.6042 6.37089 11.463 6.22613L10.778 5.52362C8.94141 3.64018 5.97174 3.64018 4.13516 5.52361C2.33822 7.3664 2.28222 10.3443 4.01044 12.2572L9.73677 18.5954C10.9602 19.9496 13.0397 19.9496 14.2632 18.5954L19.9896 12.2571C21.7178 10.3442 21.6618 7.36638 19.8648 5.5236ZM16.25 6.49999C16.25 6.08577 16.5858 5.74999 17 5.74999C18.5188 5.74999 19.75 6.9812 19.75 8.49999C19.75 8.9142 19.4142 9.24999 19 9.24999C18.5858 9.24999 18.25 8.9142 18.25 8.49999C18.25 7.80963 17.6903 7.24999 17 7.24999C16.5858 7.24999 16.25 6.9142 16.25 6.49999Z" fill="#28303F"/>
</svg>
