<svg width="16" height="16" viewBox="0 0 16 16" fill="none" xmlns="http://www.w3.org/2000/svg">
<g clip-path="url(#clip0_9_540)">
<path fill-rule="evenodd" clip-rule="evenodd" d="M11.0575 1.37476C11.7794 0.652873 12.9498 0.652873 13.6716 1.37476L14.6252 2.32829C15.3471 3.05017 15.3471 4.22057 14.6252 4.94246L9.22183 10.3458C8.93901 10.6286 8.5721 10.8121 8.17616 10.8686L6.17374 11.1547C5.39878 11.2654 4.73452 10.6011 4.84523 9.82618L5.13129 7.82377C5.18786 7.42783 5.37131 7.06091 5.65413 6.7781L11.0575 1.37476ZM12.9645 2.08186C12.6332 1.7505 12.0959 1.7505 11.7646 2.08186L10.9826 2.86384C10.9965 2.93368 11.0179 3.02035 11.051 3.11969C11.1486 3.41241 11.3489 3.81967 11.7646 4.23535C12.1803 4.65104 12.5875 4.85133 12.8802 4.9489C12.9796 4.98202 13.0662 5.00346 13.1361 5.01732L13.9181 4.23535C14.2494 3.90399 14.2494 3.36675 13.9181 3.03539L12.9645 2.08186ZM12.3396 5.81384C11.957 5.65573 11.5043 5.38929 11.0575 4.94246C10.6106 4.49562 10.3442 4.04297 10.1861 3.66035L6.36123 7.48521C6.23142 7.61502 6.14721 7.78344 6.12124 7.96519L5.83518 9.9676C5.81875 10.0826 5.91733 10.1812 6.03232 10.1647L8.03474 9.87869C8.21648 9.85272 8.3849 9.76851 8.51472 9.63869L12.3396 5.81384ZM10.9575 2.68067L10.9575 2.68006L10.9575 2.6786L10.9575 2.67667C10.9574 2.6761 10.9574 2.67591 10.9574 2.67611L10.9575 2.67666C10.9575 2.67668 10.9575 2.6767 10.9575 2.67671M10.9575 2.68067C10.9575 2.68082 10.9575 2.68098 10.9575 2.68113C10.9575 2.68121 10.9575 2.68129 10.9575 2.68137C10.9575 2.68137 10.9575 2.68137 10.9575 2.68136L10.9575 2.68113V2.68091L10.9575 2.68067ZM3.99992 1.83334C2.8033 1.83334 1.83325 2.80339 1.83325 4.00001V12C1.83325 13.1966 2.8033 14.1667 3.99992 14.1667H11.9999C13.1965 14.1667 14.1666 13.1966 14.1666 12V8.00001C14.1666 7.72387 14.3904 7.50001 14.6666 7.50001C14.9427 7.50001 15.1666 7.72387 15.1666 8.00001V12C15.1666 13.7489 13.7488 15.1667 11.9999 15.1667H3.99992C2.25102 15.1667 0.833252 13.7489 0.833252 12V4.00001C0.833252 2.25111 2.25102 0.833344 3.99992 0.833344H7.99992C8.27606 0.833344 8.49992 1.0572 8.49992 1.33334C8.49992 1.60949 8.27606 1.83334 7.99992 1.83334H3.99992Z" fill="#28303F"/>
</g>
<defs>
<clipPath id="clip0_9_540">
<rect width="16" height="16" fill="white"/>
</clipPath>
</defs>
</svg>
