<svg width="16" height="16" viewBox="0 0 16 16" fill="none" xmlns="http://www.w3.org/2000/svg">
<path fill-rule="evenodd" clip-rule="evenodd" d="M6.27093 1.92706C6.51821 1.55613 6.93452 1.33333 7.38033 1.33333H8.61984C9.06564 1.33333 9.48195 1.55613 9.72924 1.92706L10.3334 2.83333H12.8334C13.1096 2.83333 13.3334 3.05719 13.3334 3.33333C13.3334 3.60947 13.1096 3.83333 12.8334 3.83333H3.16675C2.89061 3.83333 2.66675 3.60947 2.66675 3.33333C2.66675 3.05719 2.89061 2.83333 3.16675 2.83333H5.66675L6.27093 1.92706ZM10.0001 14.6667H6.00008C4.52732 14.6667 3.33341 13.4728 3.33341 12V4.66666H12.6667V12C12.6667 13.4728 11.4728 14.6667 10.0001 14.6667ZM6.66675 6.83333C6.94289 6.83333 7.16675 7.05719 7.16675 7.33333V12C7.16675 12.2761 6.94289 12.5 6.66675 12.5C6.39061 12.5 6.16675 12.2761 6.16675 12V7.33333C6.16675 7.05719 6.39061 6.83333 6.66675 6.83333ZM9.33341 6.83333C9.60956 6.83333 9.83341 7.05719 9.83341 7.33333V12C9.83342 12.2761 9.60956 12.5 9.33341 12.5C9.05727 12.5 8.83342 12.2761 8.83341 12V7.33333C8.83341 7.05719 9.05727 6.83333 9.33341 6.83333Z" fill="white"/>
</svg>
