<svg width="32" height="32" viewBox="0 0 32 32" fill="none" xmlns="http://www.w3.org/2000/svg">
<path fill-rule="evenodd" clip-rule="evenodd" d="M8.63269 3.62036C10.8833 2.11997 13.8395 3.4955 14.278 6.02184H18.6666C20.6916 6.02184 22.3333 7.66346 22.3333 9.6885C22.3333 10.2408 21.8855 10.6885 21.3333 10.6885C20.781 10.6885 20.3333 10.2408 20.3333 9.6885C20.3333 8.76803 19.5871 8.02184 18.6666 8.02184H14.3333V24.6885H18.6666C19.5871 24.6885 20.3333 23.9423 20.3333 23.0218C20.3333 22.4696 20.781 22.0218 21.3333 22.0218C21.8855 22.0218 22.3333 22.4696 22.3333 23.0218C22.3333 25.0469 20.6916 26.6885 18.6666 26.6885H14.278C13.8395 29.2148 10.8833 30.5904 8.63269 29.09L5.96602 27.3122C4.94596 26.6322 4.33325 25.4873 4.33325 24.2613V8.44899C4.33325 7.22303 4.94596 6.07818 5.96602 5.39814L8.63269 3.62036ZM23.2928 19.3738C22.9023 18.9833 22.9023 18.3501 23.2928 17.9596L24.2524 17L17.3333 17C16.781 17 16.3333 16.5523 16.3333 16C16.3333 15.4477 16.781 15 17.3333 15L24.2524 15L23.2928 14.0405C22.9023 13.6499 22.9023 13.0168 23.2928 12.6262C23.6833 12.2357 24.3165 12.2357 24.707 12.6262L26.4309 14.3501C27.3421 15.2613 27.3421 16.7387 26.4309 17.6499L24.707 19.3738C24.3165 19.7643 23.6833 19.7643 23.2928 19.3738Z" fill="#28303F"/>
</svg>
