<svg width="16" height="16" viewBox="0 0 16 16" fill="none" xmlns="http://www.w3.org/2000/svg">
<path fill-rule="evenodd" clip-rule="evenodd" d="M5.85482 1.64973C6.19484 1.1397 6.76726 0.833344 7.38025 0.833344H8.61975C9.23274 0.833344 9.80516 1.1397 10.1452 1.64973L10.9343 2.83334H14C14.2761 2.83334 14.5 3.0572 14.5 3.33334C14.5 3.60949 14.2761 3.83334 14 3.83334H2C1.72386 3.83334 1.5 3.60949 1.5 3.33334C1.5 3.0572 1.72386 2.83334 2 2.83334H5.06574L5.85482 1.64973ZM6.26759 2.83334H9.73241L9.31313 2.20443C9.15858 1.97259 8.89838 1.83334 8.61975 1.83334H7.38025C7.10162 1.83334 6.84142 1.97259 6.68687 2.20443L6.26759 2.83334ZM3.33333 4.83334C3.60948 4.83334 3.83333 5.0572 3.83333 5.33334V12C3.83333 13.1966 4.80338 14.1667 6 14.1667H10C11.1966 14.1667 12.1667 13.1966 12.1667 12V5.33334C12.1667 5.0572 12.3905 4.83334 12.6667 4.83334C12.9428 4.83334 13.1667 5.0572 13.1667 5.33334V12C13.1667 13.7489 11.7489 15.1667 10 15.1667H6C4.2511 15.1667 2.83333 13.7489 2.83333 12V5.33334C2.83333 5.0572 3.05719 4.83334 3.33333 4.83334ZM6.66667 6.83334C6.94281 6.83334 7.16667 7.0572 7.16667 7.33334V11.3333C7.16667 11.6095 6.94281 11.8333 6.66667 11.8333C6.39052 11.8333 6.16667 11.6095 6.16667 11.3333V7.33334C6.16667 7.0572 6.39052 6.83334 6.66667 6.83334ZM9.33333 6.83334C9.60948 6.83334 9.83333 7.0572 9.83333 7.33334V11.3333C9.83333 11.6095 9.60948 11.8333 9.33333 11.8333C9.05719 11.8333 8.83333 11.6095 8.83333 11.3333V7.33334C8.83333 7.0572 9.05719 6.83334 9.33333 6.83334Z" fill="#F37C4B"/>
</svg>
