<svg width="16" height="16" viewBox="0 0 16 16" fill="none" xmlns="http://www.w3.org/2000/svg">
<g clip-path="url(#clip0_9_542)">
<path fill-rule="evenodd" clip-rule="evenodd" d="M1.83325 3.99999C1.83325 2.80338 2.8033 1.83333 3.99992 1.83333H7.99992C8.27606 1.83333 8.49992 1.60947 8.49992 1.33333C8.49992 1.05719 8.27606 0.833328 7.99992 0.833328H3.99992C2.25102 0.833328 0.833252 2.25109 0.833252 3.99999V12C0.833252 13.7489 2.25102 15.1667 3.99992 15.1667H11.9999C13.7488 15.1667 15.1666 13.7489 15.1666 12V7.99999C15.1666 7.72385 14.9427 7.49999 14.6666 7.49999C14.3904 7.49999 14.1666 7.72385 14.1666 7.99999V12C14.1666 13.1966 13.1965 14.1667 11.9999 14.1667H3.99992C2.8033 14.1667 1.83325 13.1966 1.83325 12V3.99999ZM10.9459 1.78472C11.5478 1.18287 12.5236 1.18287 13.1254 1.78472L14.2152 2.87447C14.817 3.47632 14.817 4.45212 14.2152 5.05397L13.249 6.02018C13.1731 5.98262 13.0933 5.942 13.0106 5.89844C12.4536 5.60523 11.7927 5.19371 11.2995 4.70046C10.8062 4.20721 10.3947 3.54629 10.1015 2.98935C10.0579 2.90659 10.0173 2.82678 9.97974 2.75092L10.9459 1.78472ZM10.5924 5.40756C11.1761 5.99124 11.9184 6.45062 12.5062 6.76294L8.70661 10.5626C8.47082 10.7983 8.16492 10.9513 7.83481 10.9985L5.54634 11.3254C5.03779 11.398 4.60189 10.9621 4.67454 10.4536L5.00146 8.1651C5.04862 7.835 5.20157 7.52909 5.43736 7.2933L9.23698 3.49368C9.5493 4.08156 10.0087 4.82387 10.5924 5.40756Z" fill="white"/>
</g>
<defs>
<clipPath id="clip0_9_542">
<rect width="16" height="16" fill="white"/>
</clipPath>
</defs>
</svg>
