<svg width="16" height="16" viewBox="0 0 16 16" fill="none" xmlns="http://www.w3.org/2000/svg">
<g clip-path="url(#clip0_9_259)">
<path fill-rule="evenodd" clip-rule="evenodd" d="M3.99992 1.83334C2.8033 1.83334 1.83325 2.80339 1.83325 4.00001V12C1.83325 13.1966 2.8033 14.1667 3.99992 14.1667H4.16658V10.6667C4.16658 9.65415 4.9874 8.83334 5.99992 8.83334H9.99992C11.0124 8.83334 11.8333 9.65415 11.8333 10.6667V14.1667H11.9999C13.1965 14.1667 14.1666 13.1966 14.1666 12V6.14162C14.1666 5.56698 13.9383 5.01588 13.532 4.60955L11.3904 2.46795C10.984 2.06162 10.4329 1.83334 9.85831 1.83334H3.99992ZM11.9999 15.1667C13.7488 15.1667 15.1666 13.7489 15.1666 12V6.14162C15.1666 5.30176 14.833 4.49631 14.2391 3.90244L12.0975 1.76084C11.5036 1.16697 10.6982 0.833344 9.85831 0.833344H3.99992C2.25102 0.833344 0.833252 2.25111 0.833252 4.00001V12C0.833252 13.7489 2.25102 15.1667 3.99992 15.1667H11.9999ZM10.8333 14.1667V10.6667C10.8333 10.2064 10.4602 9.83334 9.99992 9.83334H5.99992C5.53968 9.83334 5.16658 10.2064 5.16658 10.6667V14.1667H10.8333ZM5.49992 4.66668C5.49992 4.39053 5.72378 4.16668 5.99992 4.16668L9.99992 4.16668C10.2761 4.16668 10.4999 4.39053 10.4999 4.66668C10.4999 4.94282 10.2761 5.16668 9.99992 5.16668L5.99992 5.16668C5.72378 5.16668 5.49992 4.94282 5.49992 4.66668Z" fill="#28303F"/>
</g>
<defs>
<clipPath id="clip0_9_259">
<rect width="16" height="16" fill="white"/>
</clipPath>
</defs>
</svg>
