<svg width="16" height="16" viewBox="0 0 16 16" fill="none" xmlns="http://www.w3.org/2000/svg">
<path fill-rule="evenodd" clip-rule="evenodd" d="M1.33325 3.99999C1.33325 2.52724 2.52716 1.33333 3.99992 1.33333H9.85831C10.5656 1.33333 11.2438 1.61428 11.7439 2.11438L13.8855 4.25598C14.3856 4.75608 14.6666 5.43436 14.6666 6.1416V12C14.6666 13.4728 13.4727 14.6667 11.9999 14.6667H3.99992C2.52716 14.6667 1.33325 13.4728 1.33325 12V3.99999ZM10.4999 4.66666C10.4999 4.9428 10.2761 5.16666 9.99992 5.16666L5.99992 5.16666C5.72378 5.16666 5.49992 4.9428 5.49992 4.66666C5.49992 4.39052 5.72378 4.16666 5.99992 4.16666L9.99992 4.16666C10.2761 4.16666 10.4999 4.39052 10.4999 4.66666ZM4.66658 12.6667V9.99999C4.66658 9.6318 4.96506 9.33333 5.33325 9.33333H10.6666C11.0348 9.33333 11.3333 9.6318 11.3333 9.99999V12.6667C11.3333 13.0349 11.0348 13.3333 10.6666 13.3333H5.33325C4.96506 13.3333 4.66658 13.0349 4.66658 12.6667Z" fill="white"/>
</svg>
