<svg width="120" height="120" viewBox="0 0 120 120" fill="none" xmlns="http://www.w3.org/2000/svg">
<circle cx="60" cy="60" r="60" fill="#EEEEEE"/>
<g opacity="0.2">
<path fill-rule="evenodd" clip-rule="evenodd" d="M41.3763 67.8478C46.0141 65.529 52.2462 64.167 58.9935 64.167C65.7408 64.167 71.9728 65.529 76.6108 67.8478C81.0988 70.0918 84.8268 73.6546 84.8268 78.3334C84.8268 83.0122 81.0988 86.575 76.6108 88.819C71.9728 91.1382 65.7408 92.5002 58.9935 92.5002C52.2462 92.5002 46.0141 91.1382 41.3763 88.819C36.888 86.575 33.1602 83.0122 33.1602 78.3334C33.1602 73.6546 36.888 70.0918 41.3763 67.8478Z" fill="#28303F"/>
<path fill-rule="evenodd" clip-rule="evenodd" d="M43.1602 43.3333C43.1602 34.5888 50.249 27.5 58.9935 27.5C67.738 27.5 74.8268 34.5888 74.8268 43.3333C74.8268 52.0778 67.738 59.1667 58.9935 59.1667C50.249 59.1667 43.1602 52.0778 43.1602 43.3333Z" fill="#28303F"/>
</g>
<circle cx="100" cy="100" r="20" fill="#37ABEC"/>
<path fill-rule="evenodd" clip-rule="evenodd" d="M89.2501 94C89.2501 91.3766 91.3767 89.25 94.0001 89.25H106C108.623 89.25 110.75 91.3766 110.75 94V101.991C110.75 101.998 110.75 102.004 110.75 102.01V106C110.75 108.623 108.623 110.75 106 110.75H94.0001C91.3767 110.75 89.2501 108.623 89.2501 106V102.009C89.25 102.002 89.25 101.996 89.2501 101.99V94ZM90.7501 103.464V106C90.7501 107.795 92.2051 109.25 94.0001 109.25H106C107.795 109.25 109.25 107.795 109.25 106V102.384L106.623 100.493C105.382 99.5992 103.686 99.6915 102.55 100.714L98.4539 104.401C96.7928 105.896 94.3144 106.03 92.5008 104.725L90.7501 103.464ZM109.25 100.536L107.499 99.2753C105.686 97.9695 103.207 98.1045 101.546 99.5994L97.4504 103.286C96.3139 104.309 94.6181 104.401 93.3773 103.507L90.7501 101.616V94C90.7501 92.2051 92.2051 90.75 94.0001 90.75H106C107.795 90.75 109.25 92.2051 109.25 94V100.536ZM96.5001 94.75C95.5336 94.75 94.7501 95.5335 94.7501 96.5C94.7501 97.4665 95.5336 98.25 96.5001 98.25C97.4666 98.25 98.2501 97.4665 98.2501 96.5C98.2501 95.5335 97.4666 94.75 96.5001 94.75ZM93.2501 96.5C93.2501 94.7051 94.7051 93.25 96.5001 93.25C98.295 93.25 99.7501 94.7051 99.7501 96.5C99.7501 98.2949 98.295 99.75 96.5001 99.75C94.7051 99.75 93.2501 98.2949 93.2501 96.5Z" fill="white"/>
</svg>
