<svg width="392" height="67" viewBox="0 0 392 67" fill="none" xmlns="http://www.w3.org/2000/svg">
<path d="M0.953125 15H3.29688V11.3125H5.32812C7.9375 11.3125 9.4375 9.75781 9.4375 7.5C9.4375 5.27344 7.96094 3.6875 5.39062 3.6875H0.953125V15ZM3.29688 9.42188V5.60938H4.95312C6.34375 5.61719 7.02344 6.375 7.01562 7.5C7.02344 8.64062 6.34375 9.42188 4.95312 9.42188H3.29688ZM10.25 12.625C10.2578 14.3047 11.4531 15.1641 13.0781 15.1562C14.3359 15.1641 15.1484 14.6094 15.5625 13.8281H15.625V15H17.8125V9.28125C17.8203 7.23438 16.0703 6.40625 14.2188 6.40625C11.9688 6.40625 10.6875 7.5625 10.5469 9.03125H12.75C12.875 8.45312 13.3672 8.10156 14.1562 8.09375C15.0234 8.10156 15.5078 8.50781 15.5156 9.21875V9.90625C15.1562 9.92188 14.0156 9.97656 13.4062 10.0156C11.7734 10.1172 10.2578 10.7344 10.25 12.625ZM12.4688 12.5625C12.4688 11.9062 12.9766 11.5234 13.7812 11.4531C14.1719 11.4219 15.1641 11.3672 15.5156 11.3516V11.9688C15.5234 12.8672 14.7891 13.5547 13.7344 13.5625C12.9922 13.5547 12.4688 13.2109 12.4688 12.5625ZM24.4219 9.03125H26.5938C26.4688 7.42188 25.1406 6.40625 23 6.40625C20.8125 6.40625 19.4141 7.42188 19.4219 9.04688C19.4141 10.3047 20.2422 11.1328 21.8594 11.4531L23.2656 11.7344C24.0625 11.8984 24.4219 12.1719 24.4219 12.6094C24.4219 13.1562 23.8594 13.4922 23.0156 13.5C22.1641 13.4922 21.625 13.1484 21.5156 12.4844H19.1875C19.3828 14.1406 20.7266 15.1641 23.0156 15.1719C25.2734 15.1641 26.7734 14.0469 26.7812 12.375C26.7734 11.1562 25.9766 10.4219 24.3281 10.0781L22.8125 9.76562C22.0078 9.60156 21.7109 9.30469 21.7188 8.92188C21.7109 8.40625 22.2812 8.05469 23.0312 8.04688C23.8047 8.05469 24.3203 8.4375 24.4219 9.03125ZM33.0469 9.03125H35.2188C35.0938 7.42188 33.7656 6.40625 31.625 6.40625C29.4375 6.40625 28.0391 7.42188 28.0469 9.04688C28.0391 10.3047 28.8672 11.1328 30.4844 11.4531L31.8906 11.7344C32.6875 11.8984 33.0469 12.1719 33.0469 12.6094C33.0469 13.1562 32.4844 13.4922 31.6406 13.5C30.7891 13.4922 30.25 13.1484 30.1406 12.4844H27.8125C28.0078 14.1406 29.3516 15.1641 31.6406 15.1719C33.8984 15.1641 35.3984 14.0469 35.4062 12.375C35.3984 11.1562 34.6016 10.4219 32.9531 10.0781L31.4375 9.76562C30.6328 9.60156 30.3359 9.30469 30.3438 8.92188C30.3359 8.40625 30.9062 8.05469 31.6562 8.04688C32.4297 8.05469 32.9453 8.4375 33.0469 9.03125ZM38.5 15H40.9531L42.4219 9.60938H42.5312L44 15H46.4375L48.7656 6.51562H46.4219L45.1094 12.2188H45.0312L43.625 6.51562H41.3281L39.9375 12.25H39.8594L38.5312 6.51562H36.1875L38.5 15ZM53.5312 15.1719C56.1016 15.1641 57.6953 13.4062 57.7031 10.7812C57.6953 8.16406 56.1016 6.40625 53.5312 6.40625C50.9688 6.40625 49.3672 8.16406 49.375 10.7812C49.3672 13.4062 50.9688 15.1641 53.5312 15.1719ZM51.7188 10.7812C51.7188 9.28906 52.3359 8.17188 53.5469 8.17188C54.7266 8.17188 55.3516 9.28906 55.3438 10.7812C55.3516 12.2656 54.7266 13.3672 53.5469 13.375C52.3359 13.3672 51.7188 12.2656 51.7188 10.7812ZM59.1562 15H61.4688V10.1719C61.4609 9.13281 62.2344 8.40625 63.2812 8.40625C63.6016 8.40625 64.0469 8.46094 64.2656 8.53125V6.46875C64.0625 6.42188 63.7656 6.39062 63.5312 6.39062C62.5781 6.39062 61.7891 6.94531 61.4844 7.98438H61.3906V6.51562H59.1562V15ZM68.25 15.1406C69.6328 15.1406 70.3359 14.3438 70.6562 13.6406H70.7656V15H73.0469V3.6875H70.7344V7.9375H70.6562C70.3516 7.25 69.6719 6.40625 68.25 6.40625C66.375 6.40625 64.7969 7.85938 64.7969 10.7656C64.7969 13.6016 66.3125 15.1406 68.25 15.1406ZM67.1719 10.75C67.1641 9.27344 67.7891 8.25 68.9688 8.25C70.1328 8.25 70.7812 9.22656 70.7812 10.75C70.7812 12.2812 70.125 13.2891 68.9688 13.2969C67.7969 13.2891 67.1641 12.25 67.1719 10.75Z" fill="black"/>
<rect y="27" width="392" height="40" rx="8" fill="#F5F5F5"/>
<path d="M22.8182 53.1562C25.201 53.1797 26.7557 51.4766 26.7557 49.3438C26.7557 47.1562 25.076 45.5938 23.0682 45.5938C21.8495 45.5938 20.8104 46.1484 20.162 47.0938H20.0214C20.0135 44.3672 21.1307 42.7812 22.9901 42.7812C24.2479 42.7812 25.0135 43.5312 25.2714 44.5312H26.662C26.3729 42.7578 24.9823 41.5312 22.9901 41.5312C20.3339 41.5312 18.6932 43.7734 18.6932 47.7812C18.6932 51.9688 20.8573 53.1328 22.8182 53.1562ZM20.2089 49.375C20.2245 48.0391 21.3651 46.8359 22.8495 46.8281C24.326 46.8359 25.3885 47.9688 25.3964 49.3594C25.3885 50.7656 24.2792 51.9141 22.8182 51.9219C21.3026 51.9141 20.2167 50.7031 20.2089 49.375ZM32.0057 51.0156H33.2714V47.9844H36.3026V46.7188H33.2714V43.7031H32.0057V46.7188H28.9901V47.9844H32.0057V51.0156ZM46.2245 53.1719C48.1073 53.1797 49.3573 52.0156 49.5682 50.5H48.2245C47.9901 51.4297 47.2245 51.9688 46.2245 51.9688C44.6854 51.9688 43.701 50.7109 43.6932 48.75C43.701 46.8438 44.7089 45.5938 46.2245 45.5938C47.3573 45.5938 48.0292 46.3047 48.2245 47.0781H49.5682C49.3573 45.4766 47.9979 44.4062 46.1932 44.4062C43.8885 44.4062 42.3495 46.2188 42.3495 48.7969C42.3495 51.3438 43.8182 53.1797 46.2245 53.1719ZM52.5682 47.9062C52.5682 46.4375 53.5057 45.6094 54.7714 45.6094C55.9901 45.6094 56.7245 46.3672 56.7245 47.7031V53H58.0682V47.6094C58.0682 45.4297 56.912 44.4062 55.1776 44.4062C53.8339 44.4062 53.076 44.9688 52.6776 45.8438H52.5682V41.6875H51.2245V53H52.5682V47.9062ZM59.8182 50.5938C59.8182 52.25 61.0995 53.1953 62.7089 53.2031C64.1854 53.1953 64.9589 52.4141 65.2401 51.8438H65.3026V53H66.6307V47.4062C66.6385 44.7344 64.5526 44.4062 63.4432 44.4062C61.5682 44.4062 60.2401 45.3516 60.0682 46.7188H61.4745C61.662 46.0703 62.3104 45.5781 63.3807 45.5781C64.662 45.5781 65.3026 46.2031 65.3026 47.2812V47.9688C64.9198 47.9766 63.5526 48.0547 63.0057 48.0938C61.537 48.2031 59.8182 48.6484 59.8182 50.5938ZM61.162 50.6562C61.1698 49.7266 61.9432 49.2969 63.162 49.2188C63.5682 49.1953 64.9042 49.0938 65.3026 49.0703V49.9219C65.3026 50.9922 64.4589 52.0078 62.9432 52C61.912 52.0078 61.1698 51.5547 61.162 50.6562ZM68.787 53H70.1307V47.6562C70.1307 46.5156 71.037 45.6719 72.2557 45.6719C72.6073 45.6719 72.9667 45.7422 73.0682 45.7656V44.4062C72.912 44.3906 72.5682 44.3828 72.3651 44.375C71.3651 44.3828 70.4823 44.9531 70.1776 45.8125H70.0839V44.5156H68.787V53ZM73.9589 50.5938C73.9589 52.25 75.2401 53.1953 76.8495 53.2031C78.326 53.1953 79.0995 52.4141 79.3807 51.8438H79.4432V53H80.7714V47.4062C80.7792 44.7344 78.6932 44.4062 77.5839 44.4062C75.7089 44.4062 74.3807 45.3516 74.2089 46.7188H75.6151C75.8026 46.0703 76.451 45.5781 77.5214 45.5781C78.8026 45.5781 79.4432 46.2031 79.4432 47.2812V47.9688C79.0604 47.9766 77.6932 48.0547 77.1464 48.0938C75.6776 48.2031 73.9589 48.6484 73.9589 50.5938ZM75.3026 50.6562C75.3104 49.7266 76.0839 49.2969 77.3026 49.2188C77.7089 49.1953 79.0448 49.0938 79.4432 49.0703V49.9219C79.4432 50.9922 78.5995 52.0078 77.0839 52C76.0526 52.0078 75.3104 51.5547 75.3026 50.6562ZM86.3964 53.1719C88.2792 53.1797 89.5292 52.0156 89.7401 50.5H88.3964C88.162 51.4297 87.3964 51.9688 86.3964 51.9688C84.8573 51.9688 83.8729 50.7109 83.8651 48.75C83.8729 46.8438 84.8807 45.5938 86.3964 45.5938C87.5292 45.5938 88.201 46.3047 88.3964 47.0781H89.7401C89.5292 45.4766 88.1698 44.4062 86.3651 44.4062C84.0604 44.4062 82.5214 46.2188 82.5214 48.7969C82.5214 51.3438 83.9901 53.1797 86.3964 53.1719ZM95.0995 44.5156H93.3182V42.4844H91.9589V44.5156H90.6776V45.6406H91.9589V50.9062C91.9667 52.4062 93.1542 53.1094 94.287 53.1094C94.6854 53.1094 95.0135 53.0781 95.2245 53.0469V51.7969C95.0292 51.8047 94.6698 51.8281 94.4276 51.8281C93.8573 51.8281 93.3104 51.6484 93.3182 50.5625V45.6406H95.0995V44.5156ZM100.303 53.1719C102.053 53.1797 103.31 52.3047 103.709 51.0156H102.271C101.959 51.5391 101.318 51.9844 100.303 51.9844C98.7948 51.9844 97.7479 51 97.6776 49.2031H103.834V48.6406C103.842 45.5 101.959 44.4062 100.178 44.4062C97.8729 44.4062 96.3339 46.2188 96.3339 48.8281C96.3339 51.4297 97.8495 53.1797 100.303 53.1719ZM97.6854 48.0625C97.7792 46.75 98.7089 45.5938 100.178 45.5938C101.576 45.5938 102.467 46.6484 102.474 48.0625H97.6854ZM105.584 53H106.928V47.6562C106.928 46.5156 107.834 45.6719 109.053 45.6719C109.404 45.6719 109.764 45.7422 109.865 45.7656V44.4062C109.709 44.3906 109.365 44.3828 109.162 44.375C108.162 44.3828 107.279 44.9531 106.974 45.8125H106.881V44.5156H105.584V53ZM115.896 46.7188H117.209C117.037 45.3438 115.935 44.4062 114.178 44.4062C112.31 44.4062 111.037 45.4531 111.037 46.9062C111.037 48.0391 111.826 48.8438 113.303 49.1875L114.584 49.4844C115.545 49.7109 115.974 50.1016 115.974 50.7031C115.974 51.5 115.217 52.0078 114.006 52C112.935 52.0078 112.334 51.6094 112.178 50.7812H110.771C110.998 52.3281 112.131 53.1797 114.037 53.1719C116.162 53.1797 117.357 52.0938 117.365 50.625C117.357 49.4453 116.615 48.6875 115.099 48.3281L113.834 48.0156C112.842 47.7734 112.389 47.3906 112.381 46.8281C112.389 46.1172 113.131 45.5547 114.178 45.5469C115.17 45.5547 115.709 46.0156 115.896 46.7188Z" fill="#6F6F6F"/>
</svg>
