<svg width="392" height="40" viewBox="0 0 392 40" fill="none" xmlns="http://www.w3.org/2000/svg">
<rect x="0.5" y="0.5" width="391" height="39" rx="7.5" fill="white" stroke="#DDDDDD"/>
<path d="M22.8181 26.1562C25.2009 26.1797 26.7556 24.4766 26.7556 22.3438C26.7556 20.1562 25.0759 18.5938 23.0681 18.5938C21.8494 18.5938 20.8103 19.1484 20.1619 20.0938H20.0212C20.0134 17.3672 21.1306 15.7812 22.99 15.7812C24.2478 15.7812 25.0134 16.5312 25.2712 17.5312H26.6619C26.3728 15.7578 24.9822 14.5312 22.99 14.5312C20.3337 14.5312 18.6931 16.7734 18.6931 20.7812C18.6931 24.9688 20.8572 26.1328 22.8181 26.1562ZM20.2087 22.375C20.2244 21.0391 21.365 19.8359 22.8494 19.8281C24.3259 19.8359 25.3884 20.9688 25.3962 22.3594C25.3884 23.7656 24.2791 24.9141 22.8181 24.9219C21.3025 24.9141 20.2166 23.7031 20.2087 22.375ZM32.0056 24.0156H33.2712V20.9844H36.3025V19.7188H33.2712V16.7031H32.0056V19.7188H28.99V20.9844H32.0056V24.0156ZM46.2244 26.1719C48.1072 26.1797 49.3572 25.0156 49.5681 23.5H48.2244C47.99 24.4297 47.2244 24.9688 46.2244 24.9688C44.6853 24.9688 43.7009 23.7109 43.6931 21.75C43.7009 19.8438 44.7087 18.5938 46.2244 18.5938C47.3572 18.5938 48.0291 19.3047 48.2244 20.0781H49.5681C49.3572 18.4766 47.9978 17.4062 46.1931 17.4062C43.8884 17.4062 42.3494 19.2188 42.3494 21.7969C42.3494 24.3438 43.8181 26.1797 46.2244 26.1719ZM52.5681 20.9062C52.5681 19.4375 53.5056 18.6094 54.7712 18.6094C55.99 18.6094 56.7244 19.3672 56.7244 20.7031V26H58.0681V20.6094C58.0681 18.4297 56.9119 17.4062 55.1775 17.4062C53.8337 17.4062 53.0759 17.9688 52.6775 18.8438H52.5681V14.6875H51.2244V26H52.5681V20.9062ZM59.8181 23.5938C59.8181 25.25 61.0994 26.1953 62.7087 26.2031C64.1853 26.1953 64.9587 25.4141 65.24 24.8438H65.3025V26H66.6306V20.4062C66.6384 17.7344 64.5525 17.4062 63.4431 17.4062C61.5681 17.4062 60.24 18.3516 60.0681 19.7188H61.4744C61.6619 19.0703 62.3103 18.5781 63.3806 18.5781C64.6619 18.5781 65.3025 19.2031 65.3025 20.2812V20.9688C64.9197 20.9766 63.5525 21.0547 63.0056 21.0938C61.5369 21.2031 59.8181 21.6484 59.8181 23.5938ZM61.1619 23.6562C61.1697 22.7266 61.9431 22.2969 63.1619 22.2188C63.5681 22.1953 64.9041 22.0938 65.3025 22.0703V22.9219C65.3025 23.9922 64.4587 25.0078 62.9431 25C61.9119 25.0078 61.1697 24.5547 61.1619 23.6562ZM68.7869 26H70.1306V20.6562C70.1306 19.5156 71.0369 18.6719 72.2556 18.6719C72.6072 18.6719 72.9666 18.7422 73.0681 18.7656V17.4062C72.9119 17.3906 72.5681 17.3828 72.365 17.375C71.365 17.3828 70.4822 17.9531 70.1775 18.8125H70.0837V17.5156H68.7869V26ZM73.9587 23.5938C73.9587 25.25 75.24 26.1953 76.8494 26.2031C78.3259 26.1953 79.0994 25.4141 79.3806 24.8438H79.4431V26H80.7712V20.4062C80.7791 17.7344 78.6931 17.4062 77.5837 17.4062C75.7087 17.4062 74.3806 18.3516 74.2087 19.7188H75.615C75.8025 19.0703 76.4509 18.5781 77.5212 18.5781C78.8025 18.5781 79.4431 19.2031 79.4431 20.2812V20.9688C79.0603 20.9766 77.6931 21.0547 77.1462 21.0938C75.6775 21.2031 73.9587 21.6484 73.9587 23.5938ZM75.3025 23.6562C75.3103 22.7266 76.0837 22.2969 77.3025 22.2188C77.7087 22.1953 79.0447 22.0938 79.4431 22.0703V22.9219C79.4431 23.9922 78.5994 25.0078 77.0837 25C76.0525 25.0078 75.3103 24.5547 75.3025 23.6562ZM86.3962 26.1719C88.2791 26.1797 89.5291 25.0156 89.74 23.5H88.3962C88.1619 24.4297 87.3962 24.9688 86.3962 24.9688C84.8572 24.9688 83.8728 23.7109 83.865 21.75C83.8728 19.8438 84.8806 18.5938 86.3962 18.5938C87.5291 18.5938 88.2009 19.3047 88.3962 20.0781H89.74C89.5291 18.4766 88.1697 17.4062 86.365 17.4062C84.0603 17.4062 82.5212 19.2188 82.5212 21.7969C82.5212 24.3438 83.99 26.1797 86.3962 26.1719ZM95.0994 17.5156H93.3181V15.4844H91.9587V17.5156H90.6775V18.6406H91.9587V23.9062C91.9666 25.4062 93.1541 26.1094 94.2869 26.1094C94.6853 26.1094 95.0134 26.0781 95.2244 26.0469V24.7969C95.0291 24.8047 94.6697 24.8281 94.4275 24.8281C93.8572 24.8281 93.3103 24.6484 93.3181 23.5625V18.6406H95.0994V17.5156ZM100.302 26.1719C102.052 26.1797 103.31 25.3047 103.709 24.0156H102.271C101.959 24.5391 101.318 24.9844 100.302 24.9844C98.7947 24.9844 97.7478 24 97.6775 22.2031H103.834V21.6406C103.842 18.5 101.959 17.4062 100.177 17.4062C97.8728 17.4062 96.3337 19.2188 96.3337 21.8281C96.3337 24.4297 97.8494 26.1797 100.302 26.1719ZM97.6853 21.0625C97.7791 19.75 98.7087 18.5938 100.177 18.5938C101.576 18.5938 102.467 19.6484 102.474 21.0625H97.6853ZM105.584 26H106.927V20.6562C106.927 19.5156 107.834 18.6719 109.052 18.6719C109.404 18.6719 109.763 18.7422 109.865 18.7656V17.4062C109.709 17.3906 109.365 17.3828 109.162 17.375C108.162 17.3828 107.279 17.9531 106.974 18.8125H106.881V17.5156H105.584V26ZM115.896 19.7188H117.209C117.037 18.3438 115.935 17.4062 114.177 17.4062C112.31 17.4062 111.037 18.4531 111.037 19.9062C111.037 21.0391 111.826 21.8438 113.302 22.1875L114.584 22.4844C115.545 22.7109 115.974 23.1016 115.974 23.7031C115.974 24.5 115.217 25.0078 114.006 25C112.935 25.0078 112.334 24.6094 112.177 23.7812H110.771C110.998 25.3281 112.131 26.1797 114.037 26.1719C116.162 26.1797 117.357 25.0938 117.365 23.625C117.357 22.4453 116.615 21.6875 115.099 21.3281L113.834 21.0156C112.842 20.7734 112.388 20.3906 112.381 19.8281C112.388 19.1172 113.131 18.5547 114.177 18.5469C115.17 18.5547 115.709 19.0156 115.896 19.7188Z" fill="#28303F"/>
</svg>
