<svg width="66" height="11" viewBox="0 0 66 11" fill="none" xmlns="http://www.w3.org/2000/svg">
<path d="M3.44531 2.51953H2.03906V1.875C2.0332 1.21875 2.34961 0.925781 3.05859 0.925781C3.1875 0.925781 3.36914 0.9375 3.58594 0.972656V0.0703125C3.375 0.0292969 3.08203 0 2.83594 0C1.71094 0 1.02539 0.621094 1.01953 1.65234V2.51953H0V3.36328H1.01953V8.88281H2.03906V3.36328H3.44531V2.51953ZM6.97266 9.01172C8.70117 9.01758 9.86133 7.70508 9.85547 5.73047C9.86133 3.74414 8.70117 2.4375 6.97266 2.4375C5.23828 2.4375 4.06641 3.74414 4.06641 5.73047C4.06641 7.70508 5.23828 9.01758 6.97266 9.01172ZM5.07422 5.73047C5.08008 4.46484 5.67773 3.32812 6.97266 3.32812C8.25586 3.32812 8.84766 4.46484 8.84766 5.73047C8.84766 7.00195 8.25586 8.12109 6.97266 8.12109C5.67773 8.12109 5.08008 7.00195 5.07422 5.73047ZM13.7812 9.01172C15.1934 9.01758 16.1309 8.14453 16.2891 7.00781H15.2812C15.1055 7.70508 14.5312 8.10938 13.7812 8.10938C12.627 8.10938 11.8887 7.16602 11.8828 5.69531C11.8887 4.26562 12.6445 3.32812 13.7812 3.32812C14.6309 3.32812 15.1348 3.86133 15.2812 4.44141H16.2891C16.1309 3.24023 15.1113 2.4375 13.7578 2.4375C12.0293 2.4375 10.875 3.79688 10.875 5.73047C10.875 7.64062 11.9766 9.01758 13.7812 9.01172ZM21.5508 6.26953C21.5449 7.45898 20.6426 7.99805 19.9219 7.99219C19.1074 7.99805 18.5391 7.40625 18.5391 6.49219V2.51953H17.5312V6.5625C17.5254 8.17969 18.3867 8.96484 19.5938 8.96484C20.5488 8.96484 21.1816 8.44922 21.4805 7.80469H21.5508V8.88281H22.5469V2.51953H21.5508V6.26953ZM27.7031 4.17188H28.6875C28.5586 3.14062 27.7324 2.4375 26.4141 2.4375C25.0137 2.4375 24.0586 3.22266 24.0586 4.3125C24.0586 5.16211 24.6504 5.76562 25.7578 6.02344L26.7188 6.24609C27.4395 6.41602 27.7617 6.70898 27.7617 7.16016C27.7617 7.75781 27.1934 8.13867 26.2852 8.13281C25.4824 8.13867 25.0312 7.83984 24.9141 7.21875H23.8594C24.0293 8.37891 24.8789 9.01758 26.3086 9.01172C27.9023 9.01758 28.7988 8.20312 28.8047 7.10156C28.7988 6.2168 28.2422 5.64844 27.1055 5.37891L26.1562 5.14453C25.4121 4.96289 25.0723 4.67578 25.0664 4.25391C25.0723 3.7207 25.6289 3.29883 26.4141 3.29297C27.1582 3.29883 27.5625 3.64453 27.7031 4.17188ZM33.1406 0H32.2148L29.4844 10.1602H30.3984L33.1406 0ZM33.8203 7.07812C33.8203 8.32031 34.7812 9.0293 35.9883 9.03516C37.0957 9.0293 37.6758 8.44336 37.8867 8.01562H37.9336V8.88281H38.9297V4.6875C38.9355 2.68359 37.3711 2.4375 36.5391 2.4375C35.1328 2.4375 34.1367 3.14648 34.0078 4.17188H35.0625C35.2031 3.68555 35.6895 3.31641 36.4922 3.31641C37.4531 3.31641 37.9336 3.78516 37.9336 4.59375V5.10938C37.6465 5.11523 36.6211 5.17383 36.2109 5.20312C35.1094 5.28516 33.8203 5.61914 33.8203 7.07812ZM34.8281 7.125C34.834 6.42773 35.4141 6.10547 36.3281 6.04688C36.6328 6.0293 37.6348 5.95312 37.9336 5.93555V6.57422C37.9336 7.37695 37.3008 8.13867 36.1641 8.13281C35.3906 8.13867 34.834 7.79883 34.8281 7.125ZM43.1484 9.01172C44.5605 9.01758 45.498 8.14453 45.6562 7.00781H44.6484C44.4727 7.70508 43.8984 8.10938 43.1484 8.10938C41.9941 8.10938 41.2559 7.16602 41.25 5.69531C41.2559 4.26562 42.0117 3.32812 43.1484 3.32812C43.998 3.32812 44.502 3.86133 44.6484 4.44141H45.6562C45.498 3.24023 44.4785 2.4375 43.125 2.4375C41.3965 2.4375 40.2422 3.79688 40.2422 5.73047C40.2422 7.64062 41.3438 9.01758 43.1484 9.01172ZM49.6758 2.51953H48.3398V0.996094H47.3203V2.51953H46.3594V3.36328H47.3203V7.3125C47.3262 8.4375 48.2168 8.96484 49.0664 8.96484C49.3652 8.96484 49.6113 8.94141 49.7695 8.91797V7.98047C49.623 7.98633 49.3535 8.00391 49.1719 8.00391C48.7441 8.00391 48.334 7.86914 48.3398 7.05469V3.36328H49.6758V2.51953ZM50.9766 8.88281H51.9844V2.51953H50.9766V8.88281ZM50.7773 0.796875C50.7715 1.16602 51.0938 1.46484 51.4805 1.46484C51.8672 1.46484 52.1895 1.16602 52.1953 0.796875C52.1895 0.421875 51.8672 0.123047 51.4805 0.128906C51.0938 0.123047 50.7715 0.421875 50.7773 0.796875ZM58.8281 2.51953H57.7266L55.9922 7.57031H55.9219L54.1875 2.51953H53.0859L55.4297 8.88281H56.4727L58.8281 2.51953ZM62.3789 9.01172C63.6914 9.01758 64.6348 8.36133 64.9336 7.39453H63.8555C63.6211 7.78711 63.1406 8.12109 62.3789 8.12109C61.248 8.12109 60.4629 7.38281 60.4102 6.03516H65.0273V5.61328C65.0332 3.25781 63.6211 2.4375 62.2852 2.4375C60.5566 2.4375 59.4023 3.79688 59.4023 5.75391C59.4023 7.70508 60.5391 9.01758 62.3789 9.01172ZM60.416 5.17969C60.4863 4.19531 61.1836 3.32812 62.2852 3.32812C63.334 3.32812 64.002 4.11914 64.0078 5.17969H60.416Z" fill="black"/>
</svg>
